{
.appVersion = "3151";
.formatVersion = 3;
DisplayStrings = (
"ABCDEFGHIJKLMNOPQRSTUVWXYZ
abcdefghijklmnopqrstuvwxyz
1234567890 .,:;!?\"“”

Nsibidi Forma

EKPE DISPLAY
Ekpe Display
Ekoi Display
EKOI DISPLAY",
"hamburgefonstiv
adhesion
ADHESION
OVHAMNPR

HAMBURGEFONTSIV

HAMBURGEFONTSIV
HNM

pqcywjl",
"EBEANO
SUPERMARKET 

WAR  COUNTRY
AKACHI
WAR TRAVELLER
EKPE 
Utok",
".,:;!?\"“”
1234567890",
"0",
"1",
"2",
"3",
I,
a,
b,
".",
",",
":",
"?",
"¿",
"!",
";",
q,
r,
s,
to,
u,
v,
w,
x,
y,
z,
"ÓÔÖÒŐŌØÕŒ",
"̈",
"Ä",
A
);
axes = (
{
name = Morph;
tag = morf;
}
);
date = "2023-10-07 20:47:59 +0000";
familyName = "Nsibidi Libre";
fontMaster = (
{
axesValues = (
30
);
iconName = Condensed;
id = m004;
metricValues = (
{
over = 16;
pos = 726;
},
{
over = 16;
pos = 700;
},
{
over = 16;
pos = 500;
},
{
over = -16;
},
{
over = -16;
pos = -300;
}
);
name = Skeleton;
userData = {
GSCornerRadius = 28;
GSRoughenHorizontal = 8;
GSRoughenSegmentLength = 8;
GSRoughenVertical = 8;
};
visible = 1;
}
);
glyphs = (
{
color = 5;
glyphname = A;
lastChange = "2023-12-15 17:38:24 +0000";
layers = (
{
background = {
guides = (
{
pos = (515,384);
showMeasurement = 1;
}
);
shapes = (
{
closed = 1;
nodes = (
(323,339,o),
(333,351,o),
(333,367,cs),
(333,670,ls),
(333,686,o),
(323,694,o),
(305,694,cs),
(287,694,o),
(278,685,o),
(278,668,cs),
(278,365,ls),
(278,349,o),
(287,339,o),
(305,339,cs)
);
}
);
};
guides = (
{
pos = (500,274);
showMeasurement = 1;
}
);
layerId = m004;
shapes = (
{
closed = 1;
nodes = (
(558,9,o),
(564,19,o),
(564,30,cs),
(564,33,o),
(564,37,o),
(562,41,cs),
(338,657,ls),
(333,668,o),
(327,673,o),
(317,673,cs),
(314,673,o),
(311,673,o),
(307,672,c),
(304,673,o),
(301,673,o),
(298,673,cs),
(288,673,o),
(281,668,o),
(276,656,cs),
(52,39,ls),
(51,35,o),
(50,31,o),
(50,28,cs),
(50,18,o),
(55,10,o),
(68,6,cs),
(72,5,o),
(76,4,o),
(80,4,cs),
(91,4,o),
(100,11,o),
(104,22,cs),
(302,564,ls),
(303,567,o),
(306,568,o),
(308,568,cs),
(311,568,o),
(313,567,o),
(314,564,cs),
(511,20,ls),
(515,9,o),
(523,3,o),
(533,3,cs),
(537,3,o),
(541,3,o),
(545,5,cs)
);
},
{
closed = 1;
nodes = (
(532,249,ls),
(546,249,o),
(557,260,o),
(557,274,cs),
(557,288,o),
(546,299,o),
(532,299,cs),
(83,299,ls),
(69,299,o),
(58,288,o),
(58,274,cs),
(58,260,o),
(69,249,o),
(83,249,cs)
);
},
{
closed = 1;
nodes = (
(388,650,ls),
(404,650,o),
(414,659,o),
(414,675,cs),
(414,691,o),
(404,700,o),
(388,700,cs),
(225,700,ls),
(209,700,o),
(199,691,o),
(199,675,cs),
(199,659,o),
(209,650,o),
(225,650,cs)
);
}
);
width = 614;
}
);
unicode = 65;
},
{
color = 5;
glyphname = B;
lastChange = "2023-12-13 15:14:28 +0000";
layers = (
{
guides = (
{
angle = -90;
pos = (579,449);
showMeasurement = 1;
},
{
pos = (505,368);
showMeasurement = 1;
}
);
layerId = m004;
shapes = (
{
closed = 1;
nodes = (
(425,0,ls),
(527,0,o),
(609,73,o),
(609,208,cs),
(609,295,o),
(556,367,o),
(488,382,c),
(524,410,o),
(559,447,o),
(559,526,cs),
(559,626,o),
(477,700,o),
(375,700,cs),
(158,700,ls),
(140,700,o),
(130,690,o),
(130,672,cs),
(130,393,l),
(75,393,ls),
(61,393,o),
(50,382,o),
(50,368,cs),
(50,355,o),
(61,344,o),
(74,344,cs),
(130,344,l),
(130,28,ls),
(130,10,o),
(140,0,o),
(158,0,cs)
);
},
{
closed = 1;
nodes = (
(185,344,l),
(414,344,ls),
(491,344,o),
(554,283,o),
(554,209,cs),
(554,91,o),
(466,50,o),
(414,50,cs),
(185,50,l)
);
},
{
closed = 1;
nodes = (
(185,650,l),
(380,650,ls),
(449,650,o),
(505,595,o),
(505,528,cs),
(505,459,o),
(449,393,o),
(380,393,cs),
(185,393,l)
);
}
);
width = 669;
}
);
metricLeft = H;
unicode = 66;
},
{
color = 5;
glyphname = C;
lastChange = "2023-12-13 15:14:28 +0000";
layers = (
{
layerId = m004;
shapes = (
{
closed = 1;
nodes = (
(475,-10,o),
(567,28,o),
(633,94,cs),
(640,101,o),
(644,109,o),
(644,116,cs),
(644,124,o),
(641,131,o),
(635,135,cs),
(630,139,o),
(624,141,o),
(617,141,cs),
(609,141,o),
(601,138,o),
(594,131,cs),
(537,74,o),
(459,40,o),
(379,40,cs),
(233,40,o),
(113,197,o),
(113,351,cs),
(113,547,o),
(241,660,o),
(379,660,cs),
(451,660,o),
(526,637,o),
(583,589,cs),
(590,583,o),
(597,581,o),
(605,581,cs),
(611,581,o),
(617,584,o),
(622,588,cs),
(628,593,o),
(631,600,o),
(631,608,cs),
(631,616,o),
(627,625,o),
(618,632,cs),
(551,685,o),
(465,710,o),
(379,710,cs),
(211,710,o),
(58,585,o),
(58,351,cs),
(58,165,o),
(200,-10,o),
(379,-10,cs)
);
}
);
width = 702;
}
);
metricLeft = O;
metricRight = O;
unicode = 67;
},
{
color = 5;
glyphname = D;
lastChange = "2023-12-13 15:14:28 +0000";
layers = (
{
background = {
shapes = (
{
closed = 1;
nodes = (
(486,-10,o),
(657,135,o),
(657,351,cs),
(657,605,o),
(475,710,o),
(298,710,cs),
(120,710,o),
(-63,605,o),
(-63,351,cs),
(-63,135,o),
(109,-10,o),
(298,-10,cs)
);
},
{
closed = 1;
nodes = (
(142,40,o),
(-8,167,o),
(-8,351,cs),
(-8,567,o),
(150,660,o),
(298,660,cs),
(445,660,o),
(602,567,o),
(602,351,cs),
(602,167,o),
(453,40,o),
(298,40,cs)
);
}
);
};
guides = (
{
pos = (245,676);
showMeasurement = 1;
},
{
angle = 270;
pos = (309,360);
showMeasurement = 1;
}
);
layerId = m004;
shapes = (
{
closed = 1;
nodes = (
(250,0,ls),
(515,0,o),
(657,115,o),
(657,351,cs),
(657,605,o),
(455,700,o),
(250,700,cs),
(75,700,ls),
(61,700,o),
(50,689,o),
(50,675,cs),
(50,661,o),
(62,650,o),
(76,650,cs),
(250,650,ls),
(427,650,o),
(602,558,o),
(602,351,cs),
(602,154,o),
(487,50,o),
(250,50,cs),
(75,50,ls),
(61,50,o),
(50,39,o),
(50,25,cs),
(50,11,o),
(61,0,o),
(75,0,cs)
);
},
{
closed = 1;
nodes = (
(165,0,o),
(175,12,o),
(175,28,cs),
(175,676,ls),
(175,692,o),
(165,700,o),
(147,700,cs),
(129,700,o),
(120,691,o),
(120,674,cs),
(120,26,ls),
(120,10,o),
(129,0,o),
(147,0,cs)
);
}
);
width = 715;
}
);
metricLeft = H;
metricRight = O;
unicode = 68;
},
{
color = 5;
glyphname = E;
lastChange = "2023-12-15 17:57:54 +0000";
layers = (
{
background = {
shapes = (
{
closed = 1;
nodes = (
(256,6,o),
(369,6,cs),
(441,6,o),
(517,32,o),
(559,72,cs),
(565,78,o),
(568,86,o),
(568,94,cs),
(568,104,o),
(564,113,o),
(557,118,cs),
(551,123,o),
(544,125,o),
(538,125,cs),
(529,125,o),
(522,121,o),
(513,112,cs),
(481,81,o),
(428,62,o),
(372,62,cs),
(294,62,o),
(175,95,o),
(175,206,cs),
(175,296,o),
(263,361,o),
(420,361,cs),
(451,361,ls),
(467,361,o),
(480,370,o),
(480,388,cs),
(480,406,o),
(465,416,o),
(449,416,cs),
(418,416,ls),
(256,416,o),
(188,452,o),
(188,535,cs),
(188,632,o),
(281,655,o),
(333,655,cs),
(390,655,o),
(465,627,o),
(500,593,cs),
(508,585,o),
(516,581,o),
(524,581,cs),
(535,580,o),
(554,586,o),
(554,609,cs),
(554,618,o),
(551,627,o),
(543,634,cs),
(503,672,o),
(394,707,o),
(328,707,cs),
(260,707,o),
(137,670,o),
(137,535,cs),
(137,424,o),
(219,392,o),
(276,384,c),
(181,365,o),
(120,294,o),
(120,205,cs),
(120,67,o)
);
},
{
closed = 1;
nodes = (
(256,6,o),
(369,6,cs),
(441,6,o),
(517,32,o),
(559,72,cs),
(565,78,o),
(568,86,o),
(568,94,cs),
(568,104,o),
(564,113,o),
(557,118,cs),
(551,123,o),
(544,125,o),
(538,125,cs),
(529,125,o),
(522,121,o),
(513,112,cs),
(481,81,o),
(428,62,o),
(372,62,cs),
(294,62,o),
(175,95,o),
(175,206,cs),
(175,296,o),
(263,361,o),
(420,361,cs),
(451,361,ls),
(467,361,o),
(480,370,o),
(480,388,cs),
(480,406,o),
(465,416,o),
(449,416,cs),
(418,416,ls),
(256,416,o),
(188,452,o),
(188,535,cs),
(188,632,o),
(281,655,o),
(333,655,cs),
(390,655,o),
(465,627,o),
(500,593,cs),
(508,585,o),
(516,581,o),
(524,581,cs),
(535,580,o),
(554,586,o),
(554,609,cs),
(554,618,o),
(551,627,o),
(543,634,cs),
(503,672,o),
(394,707,o),
(328,707,cs),
(260,707,o),
(137,670,o),
(137,535,cs),
(137,424,o),
(219,392,o),
(276,384,c),
(181,365,o),
(120,294,o),
(120,205,cs),
(120,67,o)
);
}
);
};
guides = (
{
angle = -90;
pos = (603,301);
showMeasurement = 1;
},
{
pos = (539,356);
showMeasurement = 1;
},
{
pos = (518,25);
showMeasurement = 1;
},
{
pos = (503,674);
showMeasurement = 1;
}
);
layerId = m004;
shapes = (
{
closed = 1;
nodes = (
(161,0,o),
(170,10,o),
(170,26,cs),
(170,674,ls),
(170,690,o),
(161,700,o),
(145,700,cs),
(129,700,o),
(120,691,o),
(120,674,cs),
(120,36,ls),
(120,10,o),
(129,0,o),
(145,0,cs)
);
},
{
closed = 1;
nodes = (
(551,0,ls),
(567,0,o),
(577,9,o),
(577,25,cs),
(577,41,o),
(567,50,o),
(551,50,cs),
(76,50,ls),
(60,50,o),
(50,41,o),
(50,25,cs),
(50,9,o),
(59,0,o),
(76,0,cs)
);
},
{
closed = 1;
nodes = (
(531,331,ls),
(547,331,o),
(557,340,o),
(557,356,cs),
(557,372,o),
(547,381,o),
(531,381,cs),
(156,381,ls),
(140,381,o),
(130,372,o),
(130,356,cs),
(130,340,o),
(139,331,o),
(156,331,cs)
);
},
{
closed = 1;
nodes = (
(551,650,ls),
(567,650,o),
(580,659,o),
(580,675,cs),
(580,691,o),
(567,700,o),
(551,700,cs),
(76,700,ls),
(60,700,o),
(50,691,o),
(50,675,cs),
(50,659,o),
(59,650,o),
(76,650,cs)
);
}
);
width = 605;
}
);
metricLeft = H;
metricRight = "=H/2";
unicode = 69;
},
{
color = 5;
glyphname = F;
lastChange = "2023-12-13 15:14:28 +0000";
layers = (
{
background = {
shapes = (
{
closed = 1;
nodes = (
(376,335,l),
(376,385,l),
(196,385,ls),
(125,385,o),
(71,459,o),
(71,528,cs),
(71,595,o),
(127,654,o),
(196,654,cs),
(376,654,l),
(376,700,l),
(201,700,ls),
(97,700,o),
(16,626,o),
(16,526,cs),
(16,432,o),
(94,335,o),
(181,335,cs)
);
}
);
};
guides = (
{
pos = (458,678);
showMeasurement = 1;
}
);
layerId = m004;
shapes = (
{
closed = 1;
nodes = (
(165,-4,o),
(175,8,o),
(175,24,c),
(175,676,l),
(175,692,o),
(165,700,o),
(147,700,c),
(129,700,o),
(120,691,o),
(120,674,c),
(120,455,o),
(120,241,o),
(120,22,c),
(120,6,o),
(129,-4,o),
(147,-4,c)
);
},
{
closed = 1;
nodes = (
(464,335,ls),
(490,335,o),
(500,344,o),
(500,360,cs),
(500,376,o),
(490,385,o),
(474,385,cs),
(96,385,ls),
(80,385,o),
(70,376,o),
(70,360,cs),
(70,344,o),
(79,335,o),
(96,335,cs)
);
},
{
closed = 1;
nodes = (
(513,650,ls),
(539,650,o),
(549,659,o),
(549,675,cs),
(549,691,o),
(539,700,o),
(523,700,cs),
(76,700,ls),
(60,700,o),
(50,691,o),
(50,675,cs),
(50,659,o),
(59,650,o),
(76,650,cs)
);
}
);
width = 574;
}
);
metricLeft = H;
metricRight = E;
unicode = 70;
},
{
color = 5;
glyphname = G;
lastChange = "2023-12-13 15:14:28 +0000";
layers = (
{
guides = (
{
angle = -90;
pos = (351,304);
showMeasurement = 1;
},
{
pos = (465,337);
showMeasurement = 1;
}
);
layerId = m004;
shapes = (
{
closed = 1;
nodes = (
(475,-10,o),
(567,28,o),
(633,94,cs),
(640,101,o),
(644,109,o),
(644,116,cs),
(644,124,o),
(641,131,o),
(635,135,cs),
(630,139,o),
(624,141,o),
(617,141,cs),
(609,141,o),
(601,128,o),
(594,121,cs),
(537,64,o),
(459,40,o),
(379,40,cs),
(233,40,o),
(113,197,o),
(113,351,cs),
(113,547,o),
(241,660,o),
(379,660,cs),
(451,660,o),
(526,637,o),
(583,589,cs),
(590,583,o),
(597,581,o),
(605,581,cs),
(611,581,o),
(617,574,o),
(622,578,cs),
(628,583,o),
(631,590,o),
(631,598,cs),
(631,606,o),
(627,615,o),
(618,622,cs),
(551,675,o),
(465,710,o),
(379,710,cs),
(211,710,o),
(58,585,o),
(58,351,cs),
(58,165,o),
(200,-10,o),
(379,-10,cs)
);
},
{
closed = 1;
nodes = (
(636,1,o),
(646,13,o),
(646,29,cs),
(646,332,ls),
(646,348,o),
(636,356,o),
(618,356,cs),
(600,356,o),
(591,347,o),
(591,330,cs),
(591,27,ls),
(591,11,o),
(600,1,o),
(618,1,cs)
);
},
{
closed = 1;
nodes = (
(671,312,ls),
(685,312,o),
(696,323,o),
(696,337,cs),
(696,351,o),
(685,362,o),
(671,362,cs),
(561,362,ls),
(547,362,o),
(536,351,o),
(536,337,cs),
(536,323,o),
(547,312,o),
(561,312,cs)
);
},
{
closed = 1;
nodes = (
(623,544,o),
(634,556,o),
(634,569,cs),
(633,644,ls),
(633,658,o),
(622,670,o),
(608,670,cs),
(595,670,o),
(583,659,o),
(583,645,cs),
(583,570,ls),
(583,556,o),
(595,544,o),
(609,544,cs)
);
}
);
width = 755;
}
);
metricLeft = O;
unicode = 71;
},
{
color = 5;
glyphname = H;
lastChange = "2023-12-13 15:22:20 +0000";
layers = (
{
background = {
shapes = (
{
closed = 1;
nodes = (
(132,-1,o),
(143,7,o),
(145,19,cs),
(164,124,o),
(175,239,o),
(175,363,cs),
(175,478,o),
(168,583,o),
(155,677,cs),
(153,690,o),
(143,699,o),
(130,699,cs),
(129,699,ls),
(111,699,o),
(98,685,o),
(101,667,cs),
(114,576,o),
(120,476,o),
(120,363,cs),
(120,244,o),
(111,133,o),
(92,33,cs),
(88,14,o),
(101,-1,o),
(120,-1,cs)
);
},
{
closed = 1;
nodes = (
(682,0,o),
(695,15,o),
(691,35,cs),
(673,133,o),
(665,246,o),
(665,363,cs),
(665,475,o),
(671,570,o),
(684,660,cs),
(687,678,o),
(674,692,o),
(656,692,cs),
(655,692,ls),
(642,692,o),
(632,683,o),
(630,670,cs),
(617,577,o),
(610,478,o),
(610,363,cs),
(610,242,o),
(620,124,o),
(638,20,cs),
(640,8,o),
(651,0,o),
(663,0,cs)
);
}
);
};
guides = (
{
angle = -90;
pos = (391,394);
showMeasurement = 1;
},
{
pos = (511,689);
showMeasurement = 1;
},
{
pos = (494,363);
showMeasurement = 1;
}
);
layerId = m004;
shapes = (
{
closed = 1;
nodes = (
(656,-4,o),
(666,8,o),
(666,24,c),
(666,680,l),
(666,696,o),
(656,704,o),
(638,704,c),
(620,704,o),
(611,695,o),
(611,680,c),
(611,459,o),
(611,241,o),
(611,24,c),
(611,6,o),
(620,-4,o),
(638,-4,c)
);
},
{
closed = 1;
nodes = (
(165,-4,o),
(175,8,o),
(175,24,c),
(175,680,l),
(175,696,o),
(165,704,o),
(147,704,c),
(129,704,o),
(120,695,o),
(120,680,c),
(120,459,o),
(120,241,o),
(120,24,c),
(120,6,o),
(129,-4,o),
(147,-4,c)
);
},
{
closed = 1;
nodes = (
(710,335,ls),
(726,335,o),
(736,344,o),
(736,360,cs),
(736,376,o),
(726,385,o),
(710,385,cs),
(76,385,l),
(60,385,o),
(50,376,o),
(50,360,c),
(50,344,o),
(59,335,o),
(76,335,c)
);
}
);
width = 786;
}
);
unicode = 72;
},
{
color = 5;
glyphname = I;
lastChange = "2023-12-13 14:39:18 +0000";
layers = (
{
guides = (
{
pos = (469,678);
showMeasurement = 1;
}
);
layerId = m004;
shapes = (
{
closed = 1;
nodes = (
(175,6,o),
(185,16,o),
(185,32,cs),
(185,674,ls),
(185,690,o),
(175,700,o),
(157,700,cs),
(139,700,o),
(130,691,o),
(130,674,cs),
(130,32,ls),
(130,16,o),
(139,6,o),
(157,6,cs)
);
},
{
closed = 1;
nodes = (
(239,650,ls),
(255,650,o),
(265,659,o),
(265,675,cs),
(265,691,o),
(255,700,o),
(239,700,cs),
(76,700,ls),
(60,700,o),
(50,691,o),
(50,675,cs),
(50,659,o),
(60,650,o),
(76,650,cs)
);
},
{
closed = 1;
nodes = (
(239,0,ls),
(255,0,o),
(265,9,o),
(265,25,cs),
(265,41,o),
(255,50,o),
(239,50,cs),
(76,50,ls),
(60,50,o),
(50,41,o),
(50,25,cs),
(50,9,o),
(60,0,o),
(76,0,cs)
);
}
);
width = 315;
}
);
metricLeft = H;
metricRight = H;
unicode = 73;
},
{
color = 5;
glyphname = J;
lastChange = "2023-12-13 15:22:20 +0000";
layers = (
{
layerId = m004;
shapes = (
{
closed = 1;
nodes = (
(335,-10,o),
(412,68,o),
(412,237,cs),
(412,676,ls),
(412,692,o),
(402,700,o),
(384,700,cs),
(366,700,o),
(357,691,o),
(357,674,cs),
(357,250,ls),
(357,116,o),
(305,40,o),
(220,40,cs),
(155,40,o),
(115,76,o),
(105,107,cs),
(93,143,o),
(83,155,o),
(69,155,cs),
(53,155,o),
(40,142,o),
(40,125,cs),
(40,50,o),
(129,-10,o),
(220,-10,cs)
);
}
);
width = 457;
}
);
metricRight = U;
unicode = 74;
},
{
color = 5;
glyphname = K;
lastChange = "2023-12-13 15:22:20 +0000";
layers = (
{
layerId = m004;
shapes = (
{
closed = 1;
nodes = (
(515,0,o),
(527,13,o),
(527,31,cs),
(527,291,o),
(446,385,o),
(219,393,c),
(491,649,ls),
(497,655,o),
(502,662,o),
(502,673,cs),
(502,682,o),
(494,697,o),
(473,697,cs),
(465,697,o),
(459,694,o),
(453,688,cs),
(75,332,l),
(120,294,l),
(173,346,l),
(391,340,o),
(463,278,o),
(472,32,cs),
(473,13,o),
(485,0,o),
(501,0,cs)
);
},
{
closed = 1;
nodes = (
(115,0,o),
(125,10,o),
(125,26,cs),
(125,674,ls),
(125,690,o),
(115,700,o),
(97,700,cs),
(79,700,o),
(70,691,o),
(70,674,cs),
(70,26,ls),
(70,10,o),
(79,0,o),
(97,0,cs)
);
}
);
width = 567;
}
);
metricLeft = M;
unicode = 75;
},
{
color = 5;
glyphname = L;
lastChange = "2023-12-13 15:22:51 +0000";
layers = (
{
layerId = m004;
shapes = (
{
closed = 1;
nodes = (
(91,0,o),
(100,10,o),
(100,26,cs),
(100,674,ls),
(100,690,o),
(91,700,o),
(75,700,cs),
(59,700,o),
(50,691,o),
(50,674,cs),
(50,36,ls),
(50,10,o),
(59,0,o),
(75,0,cs)
);
},
{
closed = 1;
nodes = (
(501,0,ls),
(517,0,o),
(527,9,o),
(527,25,cs),
(527,41,o),
(517,50,o),
(501,50,cs),
(76,50,ls),
(60,50,o),
(50,41,o),
(50,25,cs),
(50,9,o),
(59,0,o),
(76,0,cs)
);
}
);
width = 567;
}
);
metricLeft = H;
unicode = 76;
},
{
color = 5;
glyphname = M;
lastChange = "2023-12-13 15:22:51 +0000";
layers = (
{
guides = (
{
angle = -90;
pos = (404,394);
showMeasurement = 1;
},
{
pos = (533,384);
showMeasurement = 1;
}
);
layerId = m004;
shapes = (
{
closed = 1;
nodes = (
(115,0,o),
(125,12,o),
(125,28,c),
(125,428,ls),
(125,585,o),
(209,653,o),
(286,653,cs),
(356,653,o),
(453,585,o),
(453,428,c),
(508,428,l),
(508,637,o),
(382,708,o),
(285,708,cs),
(181,708,o),
(85,628,o),
(80,436,cs),
(70,26,l),
(70,10,o),
(79,0,o),
(97,0,c)
);
},
{
closed = 1;
nodes = (
(115,0,o),
(125,12,o),
(125,28,c),
(125,676,l),
(125,692,o),
(115,700,o),
(97,700,c),
(79,700,o),
(70,691,o),
(70,676,c),
(70,455,o),
(70,245,o),
(70,28,c),
(70,10,o),
(79,0,o),
(97,0,c)
);
},
{
closed = 1;
nodes = (
(498,0,o),
(508,12,o),
(508,28,c),
(508,462,ls),
(508,478,o),
(498,486,o),
(480,486,cs),
(462,486,o),
(453,477,o),
(453,460,cs),
(453,26,l),
(453,10,o),
(462,0,o),
(480,0,c)
);
},
{
closed = 1;
nodes = (
(881,0,o),
(891,12,o),
(891,28,c),
(891,438,ls),
(891,652,o),
(781,710,o),
(685,710,cs),
(589,710,o),
(470,628,o),
(470,430,c),
(508,430,l),
(508,591,o),
(616,659,o),
(685,659,cs),
(755,659,o),
(836,601,o),
(836,430,cs),
(836,26,l),
(836,10,o),
(845,0,o),
(863,0,c)
);
}
);
width = 961;
}
);
unicode = 77;
},
{
color = 5;
glyphname = N;
lastChange = "2023-12-13 15:35:13 +0000";
layers = (
{
background = {
shapes = (
{
closed = 1;
nodes = (
(693,21,o),
(690,33,o),
(681,46,cs),
(201,690,ls),
(192,702,o),
(176,702,o),
(165,691,cs),
(153,679,o),
(156,668,o),
(165,655,cs),
(645,11,ls),
(655,-3,o),
(670,-1,o),
(681,10,cs)
);
},
{
closed = 1;
nodes = (
(195,0,o),
(205,12,o),
(205,28,c),
(205,676,l),
(205,692,o),
(195,700,o),
(177,700,c),
(159,700,o),
(150,691,o),
(150,674,c),
(150,455,o),
(150,245,o),
(150,26,c),
(150,10,o),
(159,0,o),
(177,0,c)
);
},
{
closed = 1;
nodes = (
(687,0,o),
(697,12,o),
(697,28,c),
(697,676,l),
(697,692,o),
(687,700,o),
(669,700,c),
(651,700,o),
(642,691,o),
(642,674,c),
(642,455,o),
(642,245,o),
(642,26,c),
(642,10,o),
(651,0,o),
(669,0,c)
);
},
{
closed = 1;
nodes = (
(717,135,o),
(568,42,o),
(413,42,cs),
(258,42,o),
(109,135,o),
(109,351,cs),
(109,567,o),
(258,660,o),
(413,660,cs),
(568,660,o),
(717,567,o),
(717,351,cs)
);
},
{
closed = 1;
nodes = (
(54,97,o),
(236,-8,o),
(413,-8,cs),
(590,-8,o),
(772,97,o),
(772,351,cs),
(772,605,o),
(590,710,o),
(413,710,cs),
(236,710,o),
(54,605,o),
(54,351,cs)
);
}
);
};
layerId = m004;
shapes = (
{
closed = 1;
nodes = (
(692,-10,o),
(720,47,o),
(720,114,cs),
(720,671,l),
(720,687,o),
(710,695,o),
(692,695,cs),
(674,695,o),
(665,686,o),
(665,669,cs),
(665,135,ls),
(665,92,o),
(652,41,o),
(610,41,cs),
(577,41,o),
(545,60,o),
(495,215,cs),
(389,545,ls),
(353,657,o),
(297,710,o),
(223,710,cs),
(138,710,o),
(111,649,o),
(111,557,cs),
(111,26,ls),
(111,10,o),
(120,0,o),
(138,0,cs),
(156,0,o),
(166,12,o),
(166,28,cs),
(166,545,ls),
(166,598,o),
(170,658,o),
(222,658,cs),
(270,658,o),
(305,603,o),
(334,516,cs),
(440,192,ls),
(497,19,o),
(544,-10,o),
(610,-10,cs)
);
},
{
closed = 1;
nodes = (
(219,0,ls),
(235,0,o),
(245,9,o),
(245,25,cs),
(245,41,o),
(235,50,o),
(219,50,cs),
(56,50,ls),
(40,50,o),
(30,41,o),
(30,25,cs),
(30,9,o),
(40,0,o),
(56,0,cs)
);
},
{
closed = 1;
nodes = (
(774,650,ls),
(790,650,o),
(800,659,o),
(800,675,cs),
(800,691,o),
(790,700,o),
(774,700,cs),
(611,700,ls),
(595,700,o),
(585,691,o),
(585,675,cs),
(585,659,o),
(595,650,o),
(611,650,cs)
);
}
);
width = 830;
}
);
unicode = 78;
},
{
color = 5;
glyphname = O;
lastChange = "2023-12-13 13:59:53 +0000";
layers = (
{
guides = (
{
pos = (419,351);
showMeasurement = 1;
},
{
angle = 270;
pos = (417,350);
showMeasurement = 1;
}
);
layerId = m004;
shapes = (
{
closed = 1;
nodes = (
(721,135,o),
(572,42,o),
(417,42,cs),
(262,42,o),
(113,135,o),
(113,351,cs),
(113,567,o),
(262,660,o),
(417,660,cs),
(572,660,o),
(721,567,o),
(721,351,cs)
);
},
{
closed = 1;
nodes = (
(58,97,o),
(240,-8,o),
(417,-8,cs),
(594,-8,o),
(776,97,o),
(776,351,cs),
(776,605,o),
(594,710,o),
(417,710,cs),
(240,710,o),
(58,605,o),
(58,351,cs)
);
}
);
width = 834;
}
);
unicode = 79;
},
{
color = 5;
glyphname = P;
lastChange = "2023-12-13 15:35:13 +0000";
layers = (
{
guides = (
{
pos = (281,348);
showMeasurement = 1;
}
);
layerId = m004;
shapes = (
{
closed = 1;
nodes = (
(165,0,o),
(175,12,o),
(175,28,cs),
(175,324,l),
(365,324,ls),
(467,324,o),
(550,399,o),
(550,516,cs),
(550,632,o),
(467,700,o),
(355,700,cs),
(148,700,l),
(131,700,o),
(120,693,o),
(120,674,cs),
(120,373,l),
(75,373,ls),
(61,373,o),
(50,362,o),
(50,348,cs),
(50,335,o),
(61,324,o),
(74,324,cs),
(120,324,l),
(120,26,ls),
(120,10,o),
(129,0,o),
(147,0,cs)
);
},
{
closed = 1;
nodes = (
(175,650,l),
(360,650,ls),
(439,650,o),
(495,586,o),
(495,518,cs),
(495,449,o),
(439,373,o),
(370,373,cs),
(175,373,l)
);
}
);
width = 580;
}
);
metricLeft = H;
unicode = 80;
},
{
color = 5;
glyphname = Q;
lastChange = "2023-12-15 18:11:19 +0000";
layers = (
{
guides = (
{
pos = (277,360);
showMeasurement = 1;
}
);
layerId = m004;
shapes = (
{
closed = 1;
nodes = (
(598,-8,o),
(780,97,o),
(780,351,cs),
(780,605,o),
(598,710,o),
(421,710,cs),
(244,710,o),
(62,605,o),
(62,351,cs),
(62,97,o),
(244,-8,o),
(421,-8,cs)
);
},
{
closed = 1;
nodes = (
(748,13,o),
(750,20,o),
(750,27,cs),
(750,32,o),
(747,38,o),
(736,49,cs),
(586,199,ls),
(580,205,o),
(574,208,o),
(567,208,cs),
(561,208,o),
(555,205,o),
(550,200,cs),
(545,195,o),
(543,189,o),
(543,184,cs),
(543,177,o),
(546,171,o),
(552,165,cs),
(702,15,ls),
(713,4,o),
(719,1,o),
(725,1,cs),
(730,1,o),
(737,2,o),
(743,8,cs)
);
},
{
closed = 1;
nodes = (
(266,42,o),
(117,135,o),
(117,351,cs),
(117,567,o),
(266,660,o),
(421,660,cs),
(576,660,o),
(725,567,o),
(725,351,cs),
(725,135,o),
(576,42,o),
(421,42,cs)
);
}
);
width = 840;
}
);
unicode = 81;
},
{
color = 5;
glyphname = R;
lastChange = "2023-12-13 15:35:13 +0000";
layers = (
{
guides = (
{
angle = -90;
pos = (370,485);
showMeasurement = 1;
},
{
pos = (435,368);
showMeasurement = 1;
}
);
layerId = m004;
shapes = (
{
closed = 1;
nodes = (
(566,0,o),
(577,8,o),
(577,26,cs),
(577,30,o),
(577,34,o),
(539,215,cs),
(523,291,o),
(483,332,o),
(445,356,c),
(505,378,o),
(560,432,o),
(560,526,cs),
(560,642,o),
(477,700,o),
(355,700,cs),
(158,700,l),
(141,700,o),
(130,692,o),
(130,674,cs),
(130,393,l),
(75,393,ls),
(61,393,o),
(50,382,o),
(50,368,cs),
(50,355,o),
(61,344,o),
(74,344,cs),
(130,344,l),
(130,26,ls),
(130,10,o),
(139,0,o),
(157,0,cs),
(175,0,o),
(185,12,o),
(185,28,cs),
(185,344,l),
(316,344,ls),
(392,344,o),
(460,317,o),
(484,209,cs),
(524,26,ls),
(527,10,o),
(533,0,o),
(551,0,cs)
);
},
{
closed = 1;
nodes = (
(185,650,l),
(360,650,ls),
(449,650,o),
(505,596,o),
(505,528,cs),
(505,459,o),
(449,393,o),
(380,393,cs),
(185,393,l)
);
}
);
width = 627;
}
);
metricLeft = H;
unicode = 82;
},
{
color = 5;
glyphname = S;
lastChange = "2023-12-13 15:35:13 +0000";
layers = (
{
guides = (
{
angle = 249.2448;
pos = (302,373);
showMeasurement = 1;
},
{
pos = (366,515);
showMeasurement = 1;
},
{
pos = (366,188);
showMeasurement = 1;
}
);
layerId = m004;
shapes = (
{
closed = 1;
nodes = (
(442,-10,o),
(542,62,o),
(542,190,cs),
(542,437,o),
(137,328,o),
(137,526,cs),
(137,612,o),
(228,655,o),
(302,655,cs),
(376,655,o),
(432,612,o),
(450,574,cs),
(458,557,o),
(466,546,o),
(484,545,cs),
(486,545,o),
(489,545,o),
(492,546,cs),
(502,548,o),
(509,554,o),
(509,569,cs),
(509,573,o),
(508,578,o),
(507,582,cs),
(488,657,o),
(397,710,o),
(302,710,cs),
(199,710,o),
(84,646,o),
(84,525,cs),
(84,277,o),
(492,378,o),
(492,190,cs),
(492,102,o),
(396,45,o),
(299,45,cs),
(218,45,o),
(135,85,o),
(117,163,cs),
(112,184,o),
(104,195,o),
(85,195,cs),
(69,195,o),
(60,187,o),
(60,171,cs),
(60,167,o),
(60,163,o),
(61,159,cs),
(84,23,o),
(217,-10,o),
(304,-10,cs)
);
}
);
width = 602;
}
);
unicode = 83;
},
{
color = 5;
glyphname = T;
lastChange = "2023-12-13 15:35:13 +0000";
layers = (
{
layerId = m004;
shapes = (
{
closed = 1;
nodes = (
(348,-4,o),
(358,8,o),
(358,24,c),
(358,676,l),
(358,692,o),
(348,700,o),
(330,700,c),
(312,700,o),
(303,691,o),
(303,674,c),
(303,455,o),
(303,241,o),
(303,22,c),
(303,6,o),
(312,-4,o),
(330,-4,c)
);
},
{
closed = 1;
nodes = (
(584,650,ls),
(610,650,o),
(620,659,o),
(620,675,cs),
(620,691,o),
(610,700,o),
(594,700,cs),
(66,700,ls),
(50,700,o),
(40,691,o),
(40,675,cs),
(40,659,o),
(49,650,o),
(66,650,cs)
);
}
);
width = 660;
}
);
unicode = 84;
},
{
color = 5;
glyphname = U;
lastChange = "2023-12-13 15:35:13 +0000";
layers = (
{
guides = (
{
angle = -90;
pos = (300,517);
showMeasurement = 1;
},
{
pos = (443,404);
showMeasurement = 1;
}
);
layerId = m004;
shapes = (
{
closed = 1;
nodes = (
(465,-10,o),
(552,118,o),
(552,337,cs),
(552,676,ls),
(552,692,o),
(542,700,o),
(524,700,cs),
(506,700,o),
(497,691,o),
(497,674,cs),
(497,350,ls),
(497,166,o),
(435,40,o),
(300,40,cs),
(164,40,o),
(100,167,o),
(100,351,cs),
(100,676,ls),
(100,692,o),
(90,700,o),
(72,700,cs),
(54,700,o),
(45,691,o),
(45,674,c),
(45,334,ls),
(45,108,o),
(135,-10,o),
(300,-10,cs)
);
}
);
width = 597;
}
);
unicode = 85;
},
{
color = 5;
glyphname = V;
lastChange = "2023-12-13 15:35:13 +0000";
layers = (
{
layerId = m004;
shapes = (
{
closed = 1;
nodes = (
(349,-10,o),
(360,-4,o),
(367,16,cs),
(597,665,ls),
(599,670,o),
(600,674,o),
(600,681,cs),
(600,687,o),
(594,694,o),
(585,698,cs),
(580,700,o),
(576,700,o),
(572,700,cs),
(562,700,o),
(554,694,o),
(550,682,cs),
(330,63,ls),
(329,59,o),
(327,58,o),
(325,58,cs),
(323,58,o),
(321,60,o),
(320,63,cs),
(93,682,ls),
(89,693,o),
(81,699,o),
(72,699,cs),
(66,699,o),
(62,699,o),
(54,695,cs),
(46,691,o),
(39,685,o),
(39,677,cs),
(39,671,o),
(40,667,o),
(42,663,cs),
(279,16,ls),
(286,-4,o),
(303,-10,o),
(325,-10,cs)
);
}
);
width = 639;
}
);
unicode = 86;
},
{
color = 5;
glyphname = W;
lastChange = "2023-12-13 15:35:13 +0000";
layers = (
{
layerId = m004;
shapes = (
{
closed = 1;
nodes = (
(309,-10,o),
(320,-4,o),
(327,16,cs),
(461,399,l),
(598,16,ls),
(605,-4,o),
(622,-10,o),
(644,-10,cs),
(668,-10,o),
(679,-4,o),
(686,16,cs),
(916,664,ls),
(917,668,o),
(918,672,o),
(918,676,cs),
(918,686,o),
(913,693,o),
(903,697,cs),
(899,699,o),
(895,699,o),
(891,699,cs),
(881,699,o),
(873,693,o),
(869,681,cs),
(649,63,ls),
(648,59,o),
(646,58,o),
(644,58,cs),
(642,58,o),
(640,60,o),
(639,63,cs),
(490,478,l),
(557,665,ls),
(559,670,o),
(560,674,o),
(560,678,cs),
(559,687,o),
(554,694,o),
(545,698,cs),
(540,700,o),
(536,700,o),
(532,700,cs),
(522,700,o),
(514,694,o),
(510,682,cs),
(469,568,ls),
(468,565,o),
(465,564,o),
(463,564,cs),
(460,564,o),
(458,566,o),
(457,568,cs),
(412,683,ls),
(408,694,o),
(400,700,o),
(389,700,cs),
(377,700,o),
(359,691,o),
(359,676,cs),
(359,672,o),
(360,667,o),
(434,472,c),
(290,63,ls),
(289,59,o),
(287,58,o),
(285,58,cs),
(283,58,o),
(281,60,o),
(280,63,cs),
(53,691,ls),
(49,702,o),
(41,708,o),
(32,708,cs),
(28,708,o),
(22,708,o),
(17,706,cs),
(6,702,o),
(0,694,o),
(0,684,cs),
(0,682,o),
(0,676,o),
(2,672,cs),
(239,16,ls),
(246,-4,o),
(263,-10,o),
(285,-10,cs)
);
}
);
width = 918;
}
);
unicode = 87;
},
{
color = 5;
glyphname = X;
lastChange = "2023-12-13 15:35:13 +0000";
layers = (
{
layerId = m004;
shapes = (
{
closed = 1;
nodes = (
(85,-4,o),
(93,1,o),
(99,9,cs),
(305,304,l),
(380,197,o),
(454,91,o),
(512,7,cs),
(517,0,o),
(524,-4,o),
(531,-4,cs),
(536,-4,o),
(542,-2,o),
(548,2,cs),
(557,8,o),
(561,16,o),
(561,24,cs),
(561,30,o),
(559,36,o),
(555,41,cs),
(343,344,l),
(560,654,ls),
(563,658,o),
(565,663,o),
(565,667,cs),
(565,675,o),
(561,682,o),
(552,688,cs),
(547,692,o),
(542,693,o),
(537,693,cs),
(530,693,o),
(523,688,o),
(517,680,cs),
(459,598,o),
(386,494,o),
(312,388,c),
(104,685,ls),
(99,692,o),
(93,695,o),
(86,695,cs),
(81,695,o),
(75,693,o),
(68,689,cs),
(59,683,o),
(55,676,o),
(55,668,cs),
(55,663,o),
(57,658,o),
(61,652,cs),
(122,567,o),
(198,458,o),
(274,348,c),
(56,36,ls),
(52,30,o),
(50,24,o),
(50,19,cs),
(50,12,o),
(54,6,o),
(62,1,cs),
(67,-2,o),
(71,-4,o),
(76,-4,cs)
);
}
);
width = 615;
}
);
unicode = 88;
},
{
color = 5;
glyphname = Y;
lastChange = "2023-12-13 15:35:13 +0000";
layers = (
{
layerId = m004;
shapes = (
{
closed = 1;
nodes = (
(390,240,o),
(497,318,o),
(497,527,cs),
(497,676,ls),
(497,692,o),
(487,700,o),
(469,700,cs),
(451,700,o),
(442,691,o),
(442,674,cs),
(442,540,ls),
(442,326,o),
(360,290,o),
(275,290,cs),
(189,290,o),
(105,327,o),
(105,541,cs),
(105,676,ls),
(105,692,o),
(95,700,o),
(77,700,cs),
(59,700,o),
(50,691,o),
(50,674,c),
(50,524,ls),
(50,308,o),
(160,240,o),
(275,240,cs)
);
},
{
closed = 1;
nodes = (
(291,-4,o),
(301,8,o),
(301,24,c),
(301,360,l),
(301,376,o),
(291,384,o),
(273,384,c),
(255,384,o),
(246,375,o),
(246,358,c),
(246,139,o),
(246,241,o),
(246,22,c),
(246,6,o),
(255,-4,o),
(273,-4,c)
);
}
);
width = 547;
}
);
unicode = 89;
},
{
color = 5;
glyphname = Z;
lastChange = "2023-12-13 15:35:13 +0000";
layers = (
{
layerId = m004;
shapes = (
{
closed = 1;
nodes = (
(77,10,o),
(85,15,o),
(91,23,cs),
(535,660,ls),
(538,664,o),
(540,669,o),
(540,673,cs),
(540,681,o),
(536,688,o),
(527,694,cs),
(522,698,o),
(517,699,o),
(512,699,cs),
(505,699,o),
(498,694,o),
(492,686,c),
(45,41,ls),
(41,35,o),
(46,20,o),
(54,15,cs),
(59,12,o),
(63,10,o),
(68,10,cs)
);
},
{
closed = 1;
nodes = (
(514,0,ls),
(530,0,o),
(540,9,o),
(540,25,cs),
(540,41,o),
(530,50,o),
(514,50,cs),
(66,50,ls),
(50,50,o),
(40,41,o),
(40,25,cs),
(40,9,o),
(49,0,o),
(66,0,cs)
);
},
{
closed = 1;
nodes = (
(531,0,o),
(540,10,o),
(540,26,cs),
(540,109,ls),
(540,125,o),
(531,135,o),
(515,135,cs),
(499,135,o),
(490,125,o),
(490,109,cs),
(490,26,ls),
(490,10,o),
(499,0,o),
(515,0,cs)
);
},
{
closed = 1;
nodes = (
(82,565,o),
(91,575,o),
(91,591,cs),
(91,674,ls),
(91,690,o),
(82,700,o),
(66,700,cs),
(50,700,o),
(41,690,o),
(41,674,cs),
(41,591,ls),
(41,575,o),
(50,565,o),
(66,565,cs)
);
},
{
closed = 1;
nodes = (
(504,650,ls),
(530,650,o),
(540,659,o),
(540,675,cs),
(540,691,o),
(530,700,o),
(514,700,cs),
(66,700,ls),
(50,700,o),
(40,691,o),
(40,675,cs),
(40,659,o),
(49,650,o),
(66,650,cs)
);
}
);
width = 580;
}
);
unicode = 90;
},
{
color = 5;
glyphname = a;
lastChange = "2023-12-15 18:14:07 +0000";
layers = (
{
background = {
shapes = (
{
closed = 1;
nodes = (
(412,79,o),
(403,89,o),
(403,105,cs),
(403,212,ls),
(403,228,o),
(412,238,o),
(428,238,cs),
(444,238,o),
(453,228,o),
(453,211,cs),
(453,105,ls),
(453,88,o),
(444,79,o),
(428,79,cs)
);
},
{
closed = 1;
nodes = (
(412,70,o),
(403,80,o),
(403,96,cs),
(403,223,ls),
(403,239,o),
(412,249,o),
(428,249,cs),
(444,249,o),
(453,239,o),
(453,222,cs),
(453,96,ls),
(453,79,o),
(444,70,o),
(428,70,cs)
);
}
);
};
guides = (
{
angle = 90;
pos = (466,249);
showMeasurement = 1;
},
{
angle = 180;
pos = (199,149);
showMeasurement = 1;
}
);
layerId = m004;
shapes = (
{
closed = 1;
nodes = (
(289,-10,o),
(353,4,o),
(401,58,c),
(401,22,ls),
(401,6,o),
(410,-4,o),
(428,-4,cs),
(446,-4,o),
(456,6,o),
(456,22,cs),
(456,250,ls),
(456,431,o),
(374,510,o),
(256,510,cs),
(188,510,o),
(145,493,o),
(90,445,cs),
(85,440,o),
(82,435,o),
(82,429,cs),
(82,424,o),
(84,418,o),
(88,413,cs),
(94,405,o),
(102,401,o),
(110,401,cs),
(118,401,o),
(125,404,o),
(131,410,cs),
(160,440,o),
(206,458,o),
(256,458,cs),
(339,458,o),
(393,396,o),
(403,268,c),
(374,296,o),
(329,317,o),
(258,317,cs),
(141,317,o),
(50,246,o),
(50,149,cs),
(50,55,o),
(118,-10,o),
(218,-10,cs)
);
},
{
closed = 1;
nodes = (
(144,46,o),
(104,88,o),
(104,150,cs),
(104,215,o),
(175,267,o),
(251,267,cs),
(315,267,o),
(403,246,o),
(403,161,cs),
(403,86,o),
(308,46,o),
(228,46,cs)
);
},
{
closed = 1;
nodes = (
(512,27,o),
(507,34,o),
(502,39,cs),
(500,41,o),
(493,44,o),
(478,44,cs),
(427,44,ls),
(419,44,o),
(413,42,o),
(408,37,cs),
(403,33,o),
(402,27,o),
(402,20,cs),
(402,12,o),
(405,8,o),
(408,3,cs),
(413,-2,o),
(419,-4,o),
(427,-4,cs),
(478,-4,ls),
(493,-4,o),
(500,-2,o),
(503,3,cs),
(507,5,o),
(511,12,o),
(512,20,cs)
);
}
);
width = 516;
}
);
metricRight = n;
unicode = 97;
},
{
color = 5;
glyphname = b;
lastChange = "2023-12-13 15:14:04 +0000";
layers = (
{
background = {
shapes = (
{
closed = 1;
nodes = (
(346,274,o),
(336,284,o),
(320,284,cs),
(272,284,ls),
(256,284,o),
(246,274,o),
(246,256,cs),
(246,238,o),
(255,229,o),
(272,229,cs),
(320,229,ls),
(336,229,o),
(346,238,o),
(346,256,cs)
);
},
{
closed = 1;
nodes = (
(305,331,o),
(296,321,o),
(296,305,cs),
(296,207,ls),
(296,191,o),
(305,181,o),
(321,181,cs),
(337,181,o),
(346,191,o),
(346,207,cs),
(346,305,ls),
(346,321,o),
(337,331,o),
(321,331,cs)
);
},
{
closed = 1;
nodes = (
(337,181,o),
(346,191,o),
(346,207,cs),
(346,305,ls),
(346,321,o),
(337,331,o),
(321,331,cs),
(305,331,o),
(296,321,o),
(296,305,cs),
(296,207,ls),
(296,191,o),
(305,181,o),
(321,181,cs)
);
},
{
closed = 1;
nodes = (
(370,229,ls),
(386,229,o),
(396,238,o),
(396,256,cs),
(396,274,o),
(386,284,o),
(370,284,cs),
(322,284,ls),
(306,284,o),
(296,274,o),
(296,256,cs),
(296,238,o),
(305,229,o),
(322,229,cs)
);
}
);
};
guides = (
{
pos = (314,0);
showMeasurement = 1;
},
{
pos = (320,500);
showMeasurement = 1;
}
);
layerId = m004;
shapes = (
{
closed = 1;
nodes = (
(446,-9,o),
(560,89,o),
(560,245,cs),
(560,430,o),
(439,505,o),
(319,505,cs),
(200,505,o),
(98,430,o),
(98,245,cs),
(98,89,o),
(192,-9,o),
(319,-9,cs)
);
},
{
closed = 1;
nodes = (
(222,41,o),
(133,122,o),
(133,246,cs),
(133,392,o),
(227,455,o),
(319,455,cs),
(412,455,o),
(505,392,o),
(505,246,cs),
(505,122,o),
(416,41,o),
(319,41,cs)
);
},
{
closed = 1;
nodes = (
(123,-4,o),
(133,6,o),
(133,22,cs),
(133,700,ls),
(133,716,o),
(123,726,o),
(105,726,cs),
(87,726,o),
(78,717,o),
(78,700,cs),
(78,22,ls),
(78,6,o),
(87,-4,o),
(105,-4,cs)
);
}
);
width = 610;
}
);
metricLeft = h;
metricRight = o;
unicode = 98;
},
{
color = 5;
glyphname = c;
lastChange = "2023-12-13 15:02:22 +0000";
layers = (
{
layerId = m004;
shapes = (
{
closed = 1;
nodes = (
(515,388,o),
(519,396,o),
(519,404,cs),
(519,411,o),
(517,418,o),
(511,425,cs),
(461,484,o),
(385,510,o),
(310,510,cs),
(183,510,o),
(50,434,o),
(50,250,cs),
(50,95,o),
(174,-10,o),
(310,-10,cs),
(393,-10,o),
(472,29,o),
(521,96,cs),
(525,101,o),
(527,107,o),
(527,112,cs),
(527,121,o),
(523,129,o),
(515,135,cs),
(510,139,o),
(504,140,o),
(499,140,cs),
(490,140,o),
(481,134,o),
(474,125,cs),
(434,72,o),
(373,40,o),
(310,40,cs),
(206,40,o),
(105,126,o),
(105,250,cs),
(105,396,o),
(211,460,o),
(310,460,cs),
(368,460,o),
(428,439,o),
(469,391,cs),
(475,384,o),
(483,380,o),
(492,380,cs),
(497,380,o),
(503,381,o),
(508,384,cs)
);
}
);
width = 567;
}
);
metricLeft = o;
metricRight = e;
unicode = 99;
},
{
color = 5;
glyphname = d;
lastChange = "2023-12-13 15:35:13 +0000";
layers = (
{
background = {
shapes = (
{
closed = 1;
nodes = (
(506,-1,o),
(517,8,o),
(518,20,cs),
(531,126,o),
(536,241,o),
(530,365,cs),
(524,480,o),
(510,612,o),
(492,706,cs),
(489,719,o),
(479,727,o),
(465,726,cs),
(447,725,o),
(435,711,o),
(439,692,cs),
(456,603,o),
(469,475,o),
(475,362,cs),
(481,243,o),
(478,132,o),
(464,31,cs),
(461,12,o),
(475,-2,o),
(494,-1,cs)
);
}
);
};
layerId = m004;
shapes = (
{
closed = 1;
nodes = (
(418,-9,o),
(512,89,o),
(512,245,cs),
(512,430,o),
(411,505,o),
(291,505,cs),
(172,505,o),
(50,430,o),
(50,245,cs),
(50,89,o),
(164,-9,o),
(291,-9,cs)
);
},
{
closed = 1;
nodes = (
(194,41,o),
(105,122,o),
(105,246,cs),
(105,392,o),
(199,455,o),
(291,455,cs),
(384,455,o),
(477,392,o),
(477,246,cs),
(477,122,o),
(388,41,o),
(291,41,cs)
);
},
{
closed = 1;
nodes = (
(523,-4,o),
(533,6,o),
(533,22,cs),
(533,700,ls),
(533,716,o),
(523,726,o),
(505,726,cs),
(487,726,o),
(478,717,o),
(478,700,cs),
(478,22,ls),
(478,6,o),
(487,-4,o),
(505,-4,cs)
);
}
);
width = 611;
},
{
associatedMasterId = m004;
background = {
shapes = (
{
closed = 1;
nodes = (
(451,671,o),
(476,553,o),
(476,412,cs),
(476,240,o),
(449,155,o),
(431,121,cs),
(428,116,o),
(423,115,o),
(420,121,cs),
(398,154,o),
(385,239,o),
(385,412,cs),
(385,553,o),
(393,671,o),
(427,671,cs)
);
},
{
closed = 1;
nodes = (
(268,45,o),
(249,51,o),
(231,65,cs),
(206,84,o),
(189,86,o),
(176,70,cs),
(167,59,o),
(172,44,o),
(183,34,cs),
(189,29,ls),
(212,10,o),
(262,-5,o),
(306,-5,cs),
(346,-5,o),
(400,13,o),
(435,40,c),
(450,30,o),
(466,22,o),
(482,16,cs),
(521,3,o),
(531,15,o),
(533,31,cs),
(534,42,o),
(527,53,o),
(515,58,cs),
(510,60,o),
(482,72,o),
(471,79,c),
(499,120,o),
(531,212,o),
(531,412,cs),
(531,561,o),
(499,726,o),
(427,726,cs),
(342,726,o),
(330,561,o),
(330,412,cs),
(330,212,o),
(354,111,o),
(390,71,c),
(368,54,o),
(340,45,o),
(306,45,cs)
);
},
{
closed = 1;
nodes = (
(418,-8,o),
(532,90,o),
(532,246,cs),
(532,431,o),
(411,506,o),
(291,506,cs),
(172,506,o),
(50,431,o),
(50,246,cs),
(50,90,o),
(164,-8,o),
(291,-8,cs)
);
},
{
closed = 1;
nodes = (
(194,42,o),
(105,123,o),
(105,247,cs),
(105,393,o),
(199,456,o),
(291,456,cs),
(384,456,o),
(477,393,o),
(477,247,cs),
(477,123,o),
(388,42,o),
(291,42,cs)
);
}
);
};
layerId = "BF667803-0283-4E25-8463-576A583C71ED";
name = "17 Nov 23 at 2:09 AM";
shapes = (
{
closed = 1;
nodes = (
(406,-9,o),
(520,89,o),
(520,245,cs),
(520,430,o),
(399,505,o),
(279,505,cs),
(160,505,o),
(38,430,o),
(38,245,cs),
(38,89,o),
(152,-9,o),
(279,-9,cs)
);
},
{
closed = 1;
nodes = (
(182,41,o),
(93,122,o),
(93,246,cs),
(93,392,o),
(187,455,o),
(279,455,cs),
(372,455,o),
(465,392,o),
(465,246,cs),
(465,122,o),
(376,41,o),
(279,41,cs)
);
},
{
closed = 1;
nodes = (
(494,-1,o),
(505,8,o),
(506,20,cs),
(519,126,o),
(524,241,o),
(518,365,cs),
(512,480,o),
(498,612,o),
(480,706,cs),
(477,719,o),
(467,727,o),
(453,726,cs),
(435,725,o),
(423,711,o),
(427,693,cs),
(444,603,o),
(457,475,o),
(463,362,cs),
(469,243,o),
(466,132,o),
(452,31,cs),
(449,12,o),
(463,-2,o),
(482,-1,cs)
);
}
);
width = 600;
}
);
metricLeft = o;
unicode = 100;
},
{
color = 5;
glyphname = e;
lastChange = "2023-12-13 15:02:22 +0000";
layers = (
{
background = {
shapes = (
{
closed = 1;
nodes = (
(110,242,o),
(113,206,o),
(114,203,c),
(134,87,o),
(225,3,o),
(340,3,cs),
(412,3,o),
(489,35,o),
(527,78,cs),
(532,84,o),
(534,91,o),
(534,98,cs),
(534,108,o),
(530,117,o),
(523,121,cs),
(518,124,o),
(513,125,o),
(509,125,cs),
(499,125,o),
(491,118,o),
(485,111,cs),
(453,75,o),
(396,53,o),
(340,53,cs),
(262,53,o),
(197,110,o),
(174,192,c),
(543,225,ls),
(559,226,o),
(569,237,o),
(568,252,cs),
(557,420,o),
(470,505,o),
(330,505,cs),
(209,505,o),
(113,395,o),
(110,254,cs)
);
},
{
closed = 1;
nodes = (
(165,367,o),
(239,455,o),
(330,455,cs),
(426,455,o),
(493,395,o),
(510,281,cs),
(511,276,o),
(509,273,o),
(503,272,cs),
(166,242,l),
(165,246,o),
(165,250,o),
(165,254,cs)
);
},
{
closed = 1;
nodes = (
(71,234,o),
(81,225,o),
(97,225,cs),
(571,225,ls),
(586,225,o),
(596,234,o),
(596,250,cs),
(596,266,o),
(586,276,o),
(570,276,cs),
(97,275,ls),
(81,275,o),
(71,266,o),
(71,250,cs)
);
}
);
};
guides = (
{
angle = 270;
pos = (602,190);
showMeasurement = 1;
},
{
angle = 180;
pos = (346,250);
showMeasurement = 1;
}
);
layerId = m004;
shapes = (
{
closed = 1;
nodes = (
(567,144,o),
(558,146,o),
(553,146,cs),
(543,146,o),
(535,139,o),
(527,129,cs),
(496,91,o),
(451,40,o),
(366,40,cs),
(258,40,o),
(177,115,o),
(165,225,c),
(571,225,ls),
(590,225,o),
(597,242,o),
(597,253,cs),
(597,450,o),
(452,510,o),
(348,510,cs),
(236,510,o),
(120,441,o),
(110,275,c),
(66,275,ls),
(50,275,o),
(40,266,o),
(40,250,cs),
(40,234,o),
(50,225,o),
(66,225,cs),
(110,225,l),
(122,84,o),
(226,-10,o),
(366,-10,cs),
(470,-10,o),
(529,47,o),
(553,76,cs),
(577,105,o),
(581,112,o),
(581,120,cs),
(581,129,o),
(578,136,o),
(571,141,cs)
);
},
{
closed = 1;
nodes = (
(175,404,o),
(257,460,o),
(346,460,cs),
(479,460,o),
(541,336,o),
(541,283,cs),
(541,280,o),
(537,276,o),
(533,276,cs),
(165,276,l)
);
}
);
width = 637;
}
);
unicode = 101;
},
{
color = 5;
glyphname = f;
lastChange = "2023-12-13 15:35:13 +0000";
layers = (
{
background = {
shapes = (
{
closed = 1;
nodes = (
(109,26,ls),
(109,10,o),
(118,0,o),
(136,0,cs),
(154,0,o),
(164,10,o),
(164,26,cs),
(164,480,ls),
(164,654,o),
(196,686,o),
(268,686,cs),
(292,686,o),
(314,682,o),
(332,674,cs),
(347,667,o),
(358,668,o),
(368,680,cs),
(380,693,o),
(378,709,o),
(362,716,cs),
(334,730,o),
(302,736,o),
(268,736,cs),
(173,736,o),
(109,694,o),
(109,490,c)
);
}
);
};
guides = (
{
angle = 270;
pos = (240,593);
showMeasurement = 1;
}
);
layerId = m004;
shapes = (
{
closed = 1;
nodes = (
(148,-1,o),
(164,7,o),
(164,26,cs),
(167,571,ls),
(167,654,o),
(208,682,o),
(241,686,cs),
(263,689,o),
(282,683,o),
(296,670,cs),
(304,662,o),
(312,658,o),
(321,658,cs),
(325,658,o),
(330,659,o),
(335,663,cs),
(341,668,o),
(345,676,o),
(345,684,cs),
(344,690,o),
(342,697,o),
(336,703,cs),
(306,733,o),
(268,739,o),
(225,735,cs),
(177,731,o),
(109,689,o),
(109,586,cs),
(109,22,l),
(109,7,o),
(119,-1,o),
(135,-1,cs)
);
},
{
closed = 1;
nodes = (
(288,450,ls),
(304,450,o),
(314,459,o),
(314,475,cs),
(314,491,o),
(304,500,o),
(288,500,cs),
(55,500,ls),
(39,500,o),
(29,491,o),
(29,475,cs),
(29,459,o),
(39,450,o),
(55,450,cs)
);
}
);
width = 355;
},
{
associatedMasterId = m004;
background = {
shapes = (
{
closed = 1;
nodes = (
(109,26,ls),
(109,10,o),
(118,0,o),
(136,0,cs),
(154,0,o),
(164,10,o),
(164,26,cs),
(164,480,ls),
(164,654,o),
(196,686,o),
(268,686,cs),
(292,686,o),
(314,682,o),
(332,674,cs),
(347,667,o),
(358,668,o),
(368,680,cs),
(380,693,o),
(378,709,o),
(362,716,cs),
(334,730,o),
(302,736,o),
(268,736,cs),
(173,736,o),
(109,694,o),
(109,490,c)
);
}
);
};
guides = (
{
angle = 180;
pos = (329,474);
showMeasurement = 1;
}
);
layerId = "76EC3804-F0F7-4F83-9A66-D2B294E7F38A";
name = "17 Nov 23 at 1:49 PM";
shapes = (
{
closed = 1;
nodes = (
(290,460,ls),
(306,461,o),
(315,471,o),
(313,487,cs),
(312,503,o),
(301,511,o),
(285,510,cs),
(53,490,ls),
(37,489,o),
(28,479,o),
(30,463,cs),
(31,447,o),
(42,439,o),
(58,440,cs)
);
},
{
closed = 1;
nodes = (
(107,467,l),
(104,433,o),
(102,398,o),
(100,365,cs),
(94,241,o),
(99,126,o),
(112,20,cs),
(113,8,o),
(124,-1,o),
(136,-1,cs),
(155,-2,o),
(169,12,o),
(166,31,cs),
(152,132,o),
(149,243,o),
(155,362,cs),
(157,396,o),
(159,432,o),
(162,467,c)
);
}
);
width = 346;
}
);
unicode = 102;
},
{
color = 5;
glyphname = g;
lastChange = "2023-12-13 15:35:13 +0000";
layers = (
{
layerId = m004;
shapes = (
{
closed = 1;
nodes = (
(410,-309,o),
(532,-235,o),
(532,-54,cs),
(532,474,ls),
(532,490,o),
(523,500,o),
(505,500,cs),
(487,500,o),
(477,490,o),
(477,474,cs),
(477,-54,ls),
(477,-197,o),
(385,-256,o),
(293,-256,cs),
(237,-256,o),
(182,-239,o),
(144,-192,cs),
(137,-183,o),
(126,-176,o),
(116,-176,cs),
(110,-176,o),
(104,-178,o),
(99,-182,cs),
(93,-187,o),
(90,-193,o),
(90,-200,cs),
(90,-208,o),
(94,-217,o),
(100,-225,cs),
(149,-286,o),
(222,-309,o),
(293,-309,cs)
);
},
{
closed = 1;
nodes = (
(410,-10,o),
(512,70,o),
(512,255,cs),
(512,411,o),
(418,509,o),
(291,509,cs),
(164,509,o),
(50,411,o),
(50,255,cs),
(50,70,o),
(171,-10,o),
(291,-10,cs)
);
},
{
closed = 1;
nodes = (
(198,40,o),
(105,108,o),
(105,254,cs),
(105,378,o),
(194,459,o),
(291,459,cs),
(388,459,o),
(477,378,o),
(477,254,cs),
(477,108,o),
(383,40,o),
(291,40,cs)
);
}
);
width = 602;
}
);
unicode = 103;
},
{
color = 5;
glyphname = h;
lastChange = "2023-12-13 15:49:41 +0000";
layers = (
{
background = {
shapes = (
{
closed = 1;
nodes = (
(106,-1,o),
(117,8,o),
(118,20,cs),
(131,126,o),
(136,241,o),
(130,365,cs),
(124,480,o),
(110,612,o),
(92,706,cs),
(89,719,o),
(79,727,o),
(65,726,cs),
(47,725,o),
(35,711,o),
(39,693,cs),
(56,603,o),
(69,475,o),
(75,362,cs),
(81,243,o),
(78,132,o),
(64,31,cs),
(61,12,o),
(75,-2,o),
(94,-1,cs)
);
}
);
};
guides = (
{
angle = 270;
pos = (277,240);
showMeasurement = 1;
}
);
layerId = m004;
shapes = (
{
closed = 1;
nodes = (
(133,249,l),
(133,255,ls),
(133,398,o),
(215,457,o),
(287,457,cs),
(360,457,o),
(442,398,o),
(442,255,c),
(497,255,l),
(497,436,o),
(385,510,o),
(287,510,cs),
(190,510,o),
(98,436,o),
(98,255,cs),
(98,249,l)
);
},
{
closed = 1;
nodes = (
(123,-4,o),
(133,6,o),
(133,22,cs),
(133,700,ls),
(133,716,o),
(123,726,o),
(105,726,cs),
(87,726,o),
(78,717,o),
(78,700,cs),
(78,22,ls),
(78,6,o),
(87,-4,o),
(105,-4,cs)
);
},
{
closed = 1;
nodes = (
(487,-4,o),
(497,6,o),
(497,22,cs),
(497,255,ls),
(497,271,o),
(487,281,o),
(469,281,cs),
(451,281,o),
(442,272,o),
(442,255,cs),
(442,22,ls),
(442,6,o),
(451,-4,o),
(469,-4,cs)
);
}
);
width = 557;
}
);
metricLeft = n;
metricRight = n;
unicode = 104;
},
{
color = 5;
glyphname = i;
lastChange = "2023-12-13 15:49:41 +0000";
layers = (
{
layerId = m004;
shapes = (
{
closed = 1;
nodes = (
(125,-4,o),
(135,6,o),
(135,22,cs),
(135,464,ls),
(135,480,o),
(125,490,o),
(107,490,cs),
(89,490,o),
(80,481,o),
(80,464,cs),
(80,22,ls),
(80,6,o),
(89,-4,o),
(107,-4,cs)
);
},
{
closed = 1;
nodes = (
(128,587,o),
(145,604,o),
(145,625,cs),
(145,645,o),
(128,662,o),
(107,662,cs),
(86,662,o),
(70,645,o),
(70,625,cs),
(70,604,o),
(86,587,o),
(107,587,cs)
);
}
);
width = 215;
}
);
unicode = 105;
},
{
color = 5;
glyphname = j;
lastChange = "2023-12-13 15:49:41 +0000";
layers = (
{
guides = (
{
angle = 180;
pos = (127,-177);
showMeasurement = 1;
},
{
pos = (3,626);
showMeasurement = 1;
}
);
layerId = m004;
shapes = (
{
closed = 1;
nodes = (
(153,-309,o),
(206,-248,o),
(206,-157,cs),
(206,477,l),
(206,490,o),
(196,500,o),
(178,500,cs),
(162,500,o),
(151,490,o),
(151,477,cs),
(148,-142,ls),
(148,-208,o),
(126,-260,o),
(63,-260,cs),
(46,-260,o),
(31,-254,o),
(19,-243,cs),
(11,-235,o),
(3,-231,o),
(-6,-231,cs),
(-10,-231,o),
(-15,-232,o),
(-20,-236,cs),
(-26,-241,o),
(-30,-249,o),
(-30,-257,cs),
(-29,-263,o),
(-27,-270,o),
(-21,-276,cs),
(3,-300,o),
(33,-309,o),
(67,-309,cs)
);
},
{
closed = 1;
nodes = (
(201,588,o),
(218,605,o),
(218,626,cs),
(218,646,o),
(201,663,o),
(180,663,cs),
(159,663,o),
(143,646,o),
(143,626,cs),
(143,605,o),
(159,588,o),
(180,588,cs)
);
}
);
width = 288;
}
);
metricRight = g;
unicode = 106;
},
{
color = 5;
glyphname = k;
lastChange = "2023-12-13 15:49:41 +0000";
layers = (
{
background = {
shapes = (
{
closed = 1;
nodes = (
(123,-4,o),
(133,6,o),
(133,22,cs),
(133,673,ls),
(133,689,o),
(123,699,o),
(105,699,cs),
(87,699,o),
(78,690,o),
(78,673,cs),
(78,22,ls),
(78,6,o),
(87,-4,o),
(105,-4,cs)
);
},
{
closed = 1;
nodes = (
(32,263,o),
(45,252,o),
(64,252,cs),
(256,252,o),
(382,169,o),
(390,26,cs),
(391,7,o),
(403,-6,o),
(419,-6,cs),
(433,-6,o),
(445,7,o),
(445,25,cs),
(445,171,o),
(368,246,o),
(215,279,c),
(351,317,o),
(387,382,o),
(387,471,cs),
(387,489,o),
(375,502,o),
(361,502,cs),
(345,502,o),
(332,489,o),
(331,470,cs),
(328,409,o),
(289,325,o),
(105,306,cs),
(95,305,o),
(83,304,o),
(69,304,cs),
(44,304,o),
(32,291,o),
(32,278,cs)
);
}
);
};
layerId = m004;
shapes = (
{
closed = 1;
nodes = (
(443,-6,o),
(455,7,o),
(455,25,cs),
(455,103,o),
(444,175,o),
(401,230,cs),
(372,267,o),
(325,302,o),
(250,314,c),
(394,457,ls),
(400,463,o),
(405,470,o),
(405,481,cs),
(405,490,o),
(397,505,o),
(376,505,cs),
(368,505,o),
(362,502,o),
(356,496,cs),
(83,230,l),
(128,192,l),
(208,271,l),
(366,255,o),
(393,156,o),
(400,26,cs),
(401,7,o),
(413,-6,o),
(429,-6,cs)
);
},
{
closed = 1;
nodes = (
(123,-4,o),
(133,6,o),
(133,22,cs),
(133,673,ls),
(133,689,o),
(123,699,o),
(105,699,cs),
(87,699,o),
(78,690,o),
(78,673,cs),
(78,22,ls),
(78,6,o),
(87,-4,o),
(105,-4,cs)
);
}
);
width = 495;
}
);
metricLeft = b;
unicode = 107;
},
{
color = 5;
glyphname = l;
lastChange = "2023-12-13 15:49:41 +0000";
layers = (
{
layerId = m004;
shapes = (
{
closed = 1;
nodes = (
(115,-4,o),
(125,6,o),
(125,22,cs),
(125,673,ls),
(125,689,o),
(115,699,o),
(97,699,cs),
(79,699,o),
(70,690,o),
(70,673,cs),
(70,22,ls),
(70,6,o),
(79,-4,o),
(97,-4,cs)
);
}
);
width = 195;
}
);
unicode = 108;
},
{
color = 5;
glyphname = m;
lastChange = "2023-12-13 15:49:41 +0000";
layers = (
{
background = {
shapes = (
{
closed = 1;
nodes = (
(707,-3,o),
(717,7,o),
(717,23,cs),
(717,243,ls),
(717,385,o),
(671,506,o),
(518,506,cs),
(474,506,o),
(433,493,o),
(400,468,c),
(368,492,o),
(327,505,o),
(278,505,cs),
(160,505,o),
(78,404,o),
(78,250,c),
(133,250,l),
(133,370,o),
(177,455,o),
(278,455,cs),
(312,455,o),
(337,448,o),
(358,436,c),
(323,397,o),
(299,331,o),
(299,267,cs),
(299,174,o),
(345,112,o),
(397,112,cs),
(438,112,o),
(497,165,o),
(497,267,cs),
(497,331,o),
(472,392,o),
(436,430,c),
(459,447,o),
(487,456,o),
(518,456,cs),
(618,456,o),
(662,357,o),
(662,247,cs),
(662,23,ls),
(662,7,o),
(671,-3,o),
(689,-3,cs)
);
},
{
closed = 1;
nodes = (
(354,309,o),
(370,358,o),
(393,388,cs),
(396,392,o),
(400,392,o),
(404,387,cs),
(426,358,o),
(442,308,o),
(442,266,cs),
(442,197,o),
(422,172,o),
(398,172,cs),
(373,172,o),
(354,202,o),
(354,267,cs)
);
},
{
closed = 1;
nodes = (
(71,31,ls),
(69,12,o),
(82,-2,o),
(101,-1,cs),
(113,-1,o),
(124,8,o),
(125,20,cs),
(134,89,o),
(137,177,o),
(133,253,cs),
(128,341,o),
(123,406,o),
(107,488,cs),
(104,501,o),
(94,509,o),
(80,508,cs),
(62,507,o),
(50,493,o),
(54,475,cs),
(66,404,o),
(72,346,o),
(77,251,cs),
(81,176,o),
(80,106,o),
(74,57,cs)
);
}
);
};
guides = (
{
angle = 120.8838;
pos = (177,357);
showMeasurement = 1;
},
{
pos = (493,47);
showMeasurement = 1;
}
);
layerId = m004;
shapes = (
{
closed = 1;
nodes = (
(130,250,l),
(130,393,o),
(222,459,o),
(284,459,cs),
(347,459,o),
(411,393,o),
(411,250,c),
(466,250,l),
(466,441,o),
(372,509,o),
(284,509,cs),
(197,509,o),
(95,431,o),
(95,250,c)
);
},
{
closed = 1;
nodes = (
(123,-4,o),
(133,6,o),
(133,22,cs),
(133,475,ls),
(133,491,o),
(123,501,o),
(105,501,cs),
(87,501,o),
(78,492,o),
(78,475,cs),
(78,22,ls),
(78,6,o),
(87,-4,o),
(105,-4,cs)
);
},
{
closed = 1;
nodes = (
(456,-4,o),
(466,6,o),
(466,22,cs),
(466,274,ls),
(466,290,o),
(456,300,o),
(438,300,cs),
(420,300,o),
(411,291,o),
(411,274,cs),
(411,22,ls),
(411,6,o),
(420,-4,o),
(438,-4,cs)
);
},
{
closed = 1;
nodes = (
(790,-4,o),
(800,6,o),
(800,22,cs),
(800,256,ls),
(800,272,o),
(790,282,o),
(772,282,cs),
(754,282,o),
(745,273,o),
(745,256,cs),
(745,22,ls),
(745,6,o),
(754,-4,o),
(772,-4,cs)
);
},
{
closed = 1;
nodes = (
(466,252,l),
(466,395,o),
(540,461,o),
(609,461,cs),
(672,461,o),
(745,405,o),
(745,252,c),
(800,252,l),
(800,453,o),
(697,511,o),
(609,511,cs),
(506,511,o),
(431,433,o),
(431,252,c)
);
}
);
width = 860;
}
);
metricLeft = n;
metricRight = n;
unicode = 109;
},
{
color = 5;
glyphname = n;
lastChange = "2023-12-13 14:13:58 +0000";
layers = (
{
background = {
shapes = (
{
closed = 1;
nodes = (
(511,-4,o),
(521,6,o),
(521,22,cs),
(521,250,ls),
(521,266,o),
(511,276,o),
(493,276,cs),
(475,276,o),
(466,267,o),
(466,250,cs),
(466,22,ls),
(466,6,o),
(475,-4,o),
(493,-4,cs)
);
},
{
closed = 1;
nodes = (
(271,320,o),
(247,389,o),
(211,429,c),
(234,447,o),
(263,455,o),
(295,455,cs),
(420,455,o),
(466,372,o),
(466,250,c),
(521,250,l),
(521,401,o),
(452,505,o),
(295,505,cs),
(249,505,o),
(206,492,o),
(171,465,c),
(152,478,o),
(131,487,o),
(110,494,cs),
(105,496,o),
(100,497,o),
(95,497,cs),
(86,497,o),
(78,493,o),
(73,483,cs),
(71,479,o),
(70,475,o),
(70,472,cs),
(71,460,o),
(80,451,o),
(93,446,cs),
(108,441,o),
(122,435,o),
(135,426,c),
(107,385,o),
(78,320,o),
(78,210,cs),
(78,81,o),
(112,-5,o),
(174,-5,cs),
(239,-5,o),
(271,81,o),
(271,210,cs)
);
},
{
closed = 1;
nodes = (
(148,50,o),
(133,99,o),
(133,210,cs),
(133,292,o),
(150,345,o),
(168,379,cs),
(171,384,o),
(176,385,o),
(179,379,cs),
(201,346,o),
(214,293,o),
(214,210,cs),
(214,99,o),
(196,50,o),
(172,50,cs)
);
}
);
};
guides = (
{
pos = (295,60);
showMeasurement = 1;
}
);
layerId = m004;
shapes = (
{
closed = 1;
nodes = (
(123,-4,o),
(133,6,o),
(133,22,cs),
(133,474,ls),
(133,490,o),
(123,500,o),
(105,500,cs),
(87,500,o),
(78,491,o),
(78,474,cs),
(78,22,ls),
(78,6,o),
(87,-4,o),
(105,-4,cs)
);
},
{
closed = 1;
nodes = (
(127,250,l),
(127,393,o),
(219,457,o),
(311,457,cs),
(404,457,o),
(466,393,o),
(466,250,c),
(521,250,l),
(521,431,o),
(429,510,o),
(311,510,cs),
(194,510,o),
(92,431,o),
(92,250,c)
);
},
{
closed = 1;
nodes = (
(511,-4,o),
(521,6,o),
(521,22,cs),
(521,250,ls),
(521,266,o),
(511,276,o),
(493,276,cs),
(475,276,o),
(466,267,o),
(466,250,cs),
(466,22,ls),
(466,6,o),
(475,-4,o),
(493,-4,cs)
);
}
);
width = 581;
}
);
unicode = 110;
},
{
color = 5;
glyphname = o;
lastChange = "2023-12-05 18:36:13 +0000";
layers = (
{
guides = (
{
angle = 270;
pos = (310,250);
showMeasurement = 1;
},
{
angle = 180;
pos = (310,250);
showMeasurement = 1;
}
);
layerId = m004;
shapes = (
{
closed = 1;
nodes = (
(50,66,o),
(183,-10,o),
(310,-10,cs),
(437,-10,o),
(570,66,o),
(570,250,cs),
(570,434,o),
(437,510,o),
(310,510,cs),
(183,510,o),
(50,434,o),
(50,250,cs)
);
},
{
closed = 1;
nodes = (
(105,396,o),
(211,460,o),
(310,460,cs),
(409,460,o),
(515,396,o),
(515,250,cs),
(515,104,o),
(409,40,o),
(310,40,cs),
(211,40,o),
(105,104,o),
(105,250,cs)
);
}
);
width = 620;
}
);
unicode = 111;
},
{
color = 5;
glyphname = p;
lastChange = "2023-12-13 14:14:32 +0000";
layers = (
{
layerId = m004;
shapes = (
{
closed = 1;
nodes = (
(193,505,o),
(99,407,o),
(99,251,cs),
(99,66,o),
(200,-9,o),
(320,-9,cs),
(439,-9,o),
(561,66,o),
(561,251,cs),
(561,407,o),
(447,505,o),
(320,505,cs)
);
},
{
closed = 1;
nodes = (
(417,455,o),
(506,374,o),
(506,250,cs),
(506,104,o),
(412,41,o),
(320,41,cs),
(227,41,o),
(134,104,o),
(134,250,cs),
(134,374,o),
(223,455,o),
(320,455,cs)
);
},
{
closed = 1;
nodes = (
(88,500,o),
(78,490,o),
(78,474,cs),
(78,-274,ls),
(78,-290,o),
(88,-300,o),
(106,-300,cs),
(124,-300,o),
(133,-291,o),
(133,-274,cs),
(133,474,ls),
(133,490,o),
(124,500,o),
(106,500,cs)
);
}
);
width = 611;
}
);
metricLeft = h;
metricRight = o;
unicode = 112;
},
{
color = 5;
glyphname = q;
lastChange = "2023-12-13 15:49:41 +0000";
layers = (
{
layerId = m004;
shapes = (
{
closed = 1;
nodes = (
(410,-9,o),
(512,66,o),
(512,251,cs),
(512,407,o),
(418,505,o),
(291,505,cs),
(164,505,o),
(50,407,o),
(50,251,cs),
(50,66,o),
(171,-9,o),
(291,-9,cs)
);
},
{
closed = 1;
nodes = (
(198,41,o),
(105,104,o),
(105,250,cs),
(105,374,o),
(194,455,o),
(291,455,cs),
(388,455,o),
(477,374,o),
(477,250,cs),
(477,104,o),
(383,41,o),
(291,41,cs)
);
},
{
closed = 1;
nodes = (
(523,-300,o),
(532,-291,o),
(532,-274,cs),
(532,474,ls),
(532,490,o),
(523,500,o),
(505,500,cs),
(487,500,o),
(477,490,o),
(477,474,cs),
(477,-274,ls),
(477,-290,o),
(487,-300,o),
(505,-300,cs)
);
}
);
width = 610;
}
);
metricLeft = o;
metricRight = d;
unicode = 113;
},
{
color = 5;
glyphname = r;
lastChange = "2023-12-13 15:49:41 +0000";
layers = (
{
background = {
shapes = (
{
closed = 1;
nodes = (
(156,50,o),
(141,99,o),
(141,210,cs),
(141,292,o),
(158,345,o),
(176,379,cs),
(179,384,o),
(184,385,o),
(187,379,cs),
(209,346,o),
(222,293,o),
(222,210,cs),
(222,99,o),
(204,50,o),
(180,50,cs)
);
},
{
closed = 1;
nodes = (
(376,435,cs),
(401,416,o),
(418,414,o),
(431,430,cs),
(440,441,o),
(435,456,o),
(424,466,cs),
(418,471,ls),
(395,490,o),
(345,505,o),
(301,505,cs),
(261,505,o),
(207,487,o),
(172,460,c),
(157,470,o),
(141,478,o),
(125,484,cs),
(86,497,o),
(76,485,o),
(74,469,cs),
(73,458,o),
(80,447,o),
(92,442,cs),
(97,440,o),
(125,428,o),
(136,421,c),
(108,380,o),
(86,320,o),
(86,210,cs),
(86,91,o),
(118,-5,o),
(180,-5,cs),
(245,-5,o),
(277,91,o),
(277,210,cs),
(277,320,o),
(253,389,o),
(217,429,c),
(239,446,o),
(267,455,o),
(301,455,cs),
(339,455,o),
(358,449,o)
);
}
);
};
guides = (
{
angle = 270;
pos = (214,224);
showMeasurement = 1;
}
);
layerId = m004;
shapes = (
{
closed = 1;
nodes = (
(127,250,l),
(127,393,o),
(219,455,o),
(311,455,cs),
(322,455,o),
(333,453,o),
(343,450,cs),
(360,445,o),
(371,449,o),
(375,464,cs),
(380,484,o),
(366,496,o),
(352,500,cs),
(340,503,o),
(326,505,o),
(312,505,cs),
(195,505,o),
(90,421,o),
(90,240,c)
);
},
{
closed = 1;
nodes = (
(123,-4,o),
(133,6,o),
(133,22,cs),
(133,479,ls),
(133,495,o),
(123,505,o),
(105,505,cs),
(87,505,o),
(78,496,o),
(78,479,cs),
(78,22,ls),
(78,6,o),
(87,-4,o),
(105,-4,cs)
);
}
);
width = 388;
}
);
unicode = 114;
},
{
color = 5;
glyphname = s;
lastChange = "2023-12-13 15:49:41 +0000";
layers = (
{
guides = (
{
angle = 90;
pos = (200,406);
showMeasurement = 1;
},
{
pos = (153,389);
showMeasurement = 1;
},
{
pos = (161,137);
showMeasurement = 1;
}
);
layerId = m004;
shapes = (
{
closed = 1;
nodes = (
(318,-10,o),
(389,43,o),
(389,137,cs),
(389,318,o),
(102,257,o),
(102,378,cs),
(102,428,o),
(142,455,o),
(210,455,cs),
(248,455,o),
(294,438,o),
(307,410,cs),
(314,396,o),
(320,388,o),
(335,388,cs),
(340,388,ls),
(355,388,o),
(365,395,o),
(365,408,cs),
(365,410,o),
(365,413,o),
(364,415,cs),
(350,471,o),
(286,510,o),
(210,510,cs),
(104,510,o),
(47,450,o),
(47,376,cs),
(47,206,o),
(334,256,o),
(334,138,cs),
(334,88,o),
(289,46,o),
(208,46,cs),
(161,46,o),
(99,60,o),
(86,117,cs),
(82,133,o),
(74,142,o),
(58,142,cs),
(55,142,ls),
(40,142,o),
(30,134,o),
(30,120,cs),
(30,118,o),
(30,116,o),
(30,114,cs),
(47,14,o),
(153,-10,o),
(204,-10,cs)
);
}
);
width = 419;
}
);
unicode = 115;
},
{
color = 5;
glyphname = t;
lastChange = "2023-12-13 15:49:41 +0000";
layers = (
{
background = {
shapes = (
{
closed = 1;
nodes = (
(241,0,o),
(251,10,o),
(251,26,cs),
(251,600,ls),
(251,616,o),
(241,626,o),
(223,626,cs),
(205,626,o),
(196,617,o),
(196,600,cs),
(196,26,ls),
(196,10,o),
(205,0,o),
(223,0,cs)
);
}
);
};
guides = (
{
pos = (253,244);
showMeasurement = 1;
},
{
angle = 90;
pos = (382,358);
showMeasurement = 1;
}
);
layerId = m004;
shapes = (
{
closed = 1;
nodes = (
(306,0,o),
(351,20,o),
(380,80,cs),
(382,84,o),
(383,89,o),
(383,93,cs),
(383,104,o),
(377,114,o),
(367,118,cs),
(364,119,o),
(360,120,o),
(357,120,cs),
(346,120,o),
(336,112,o),
(329,99,cs),
(311,65,o),
(286,50,o),
(259,50,cs),
(217,50,o),
(186,82,o),
(186,175,cs),
(186,356,o),
(188,459,o),
(188,640,cs),
(188,652,o),
(176,666,o),
(160,666,cs),
(141,666,o),
(131,653,o),
(131,640,cs),
(131,150,ls),
(131,37,o),
(196,0,o),
(259,0,cs)
);
},
{
closed = 1;
nodes = (
(326,450,ls),
(342,450,o),
(352,459,o),
(352,475,cs),
(352,491,o),
(342,500,o),
(326,500,cs),
(74,500,ls),
(58,500,o),
(48,491,o),
(48,475,cs),
(48,459,o),
(58,450,o),
(74,450,cs)
);
}
);
width = 428;
}
);
unicode = 116;
},
{
color = 5;
glyphname = u;
lastChange = "2023-12-13 15:49:41 +0000";
layers = (
{
background = {
shapes = (
{
closed = 1;
nodes = (
(50,500,o),
(40,490,o),
(40,474,cs),
(40,239,ls),
(40,223,o),
(50,213,o),
(68,213,cs),
(86,213,o),
(95,222,o),
(95,239,cs),
(95,474,ls),
(95,490,o),
(86,500,o),
(68,500,cs)
);
},
{
closed = 1;
nodes = (
(458,106,o),
(457,176,o),
(461,251,cs),
(466,346,o),
(472,396,o),
(484,467,cs),
(488,485,o),
(476,499,o),
(458,500,cs),
(444,501,o),
(434,493,o),
(431,480,cs),
(415,398,o),
(410,341,o),
(405,253,cs),
(401,177,o),
(404,89,o),
(413,20,cs),
(414,8,o),
(425,-1,o),
(437,-1,cs),
(456,-2,o),
(469,12,o),
(467,31,cs),
(464,57,ls)
);
},
{
closed = 1;
nodes = (
(406,251,l),
(406,250,ls),
(406,107,o),
(336,45,o),
(246,45,cs),
(155,45,o),
(95,107,o),
(95,250,c),
(40,250,l),
(40,69,o),
(130,-5,o),
(246,-5,cs),
(360,-5,o),
(441,69,o),
(441,250,cs),
(441,251,l)
);
}
);
};
layerId = m004;
shapes = (
{
closed = 1;
nodes = (
(387,-4,o),
(489,70,o),
(489,251,c),
(454,251,l),
(454,108,o),
(362,46,o),
(270,46,cs),
(177,46,o),
(115,108,o),
(115,251,c),
(60,251,l),
(60,70,o),
(152,-4,o),
(270,-4,cs)
);
},
{
closed = 1;
nodes = (
(106,225,o),
(115,234,o),
(115,251,cs),
(115,479,ls),
(115,495,o),
(106,505,o),
(88,505,cs),
(70,505,o),
(60,495,o),
(60,479,cs),
(60,251,ls),
(60,235,o),
(70,225,o),
(88,225,cs)
);
},
{
closed = 1;
nodes = (
(494,-4,o),
(503,5,o),
(503,22,cs),
(503,479,ls),
(503,495,o),
(494,505,o),
(476,505,cs),
(458,505,o),
(448,495,o),
(448,479,cs),
(448,22,ls),
(448,6,o),
(458,-4,o),
(476,-4,cs)
);
}
);
width = 581;
}
);
unicode = 117;
},
{
color = 5;
glyphname = v;
lastChange = "2023-12-13 15:49:41 +0000";
layers = (
{
guides = (
{
pos = (247,271);
showMeasurement = 1;
},
{
angle = 191.3742;
pos = (99,481);
showMeasurement = 1;
}
);
layerId = m004;
shapes = (
{
closed = 1;
nodes = (
(272,0,o),
(283,6,o),
(290,26,cs),
(449,465,ls),
(451,469,o),
(451,474,o),
(451,477,cs),
(451,487,o),
(446,494,o),
(436,498,cs),
(432,500,o),
(428,500,o),
(425,500,cs),
(414,500,o),
(406,494,o),
(402,482,cs),
(253,63,ls),
(252,59,o),
(249,58,o),
(247,58,cs),
(245,58,o),
(242,59,o),
(241,62,cs),
(91,482,ls),
(87,493,o),
(80,500,o),
(69,500,cs),
(66,500,o),
(62,499,o),
(58,498,cs),
(46,494,o),
(40,486,o),
(40,476,cs),
(40,472,o),
(40,468,o),
(42,464,cs),
(202,26,ls),
(209,6,o),
(226,0,o),
(248,0,cs)
);
}
);
width = 491;
}
);
unicode = 118;
},
{
color = 5;
glyphname = w;
lastChange = "2023-12-13 15:49:41 +0000";
layers = (
{
layerId = m004;
shapes = (
{
closed = 1;
nodes = (
(273,0,o),
(284,6,o),
(291,26,cs),
(421,387,ls),
(422,390,o),
(425,391,o),
(427,391,cs),
(430,391,o),
(432,389,o),
(433,387,cs),
(565,26,ls),
(572,6,o),
(589,0,o),
(611,0,cs),
(635,0,o),
(646,6,o),
(653,26,cs),
(812,464,ls),
(814,470,o),
(815,474,o),
(815,478,cs),
(815,486,o),
(812,490,o),
(807,493,cs),
(799,498,o),
(794,498,o),
(787,498,cs),
(780,498,o),
(769,494,o),
(765,482,cs),
(616,63,ls),
(615,59,o),
(612,58,o),
(610,58,cs),
(608,58,o),
(605,59,o),
(604,62,cs),
(454,482,ls),
(450,494,o),
(440,500,o),
(429,500,cs),
(419,500,o),
(408,495,o),
(403,482,cs),
(254,63,ls),
(253,59,o),
(250,58,o),
(248,58,cs),
(246,58,o),
(243,59,o),
(242,62,cs),
(92,482,ls),
(88,493,o),
(81,500,o),
(70,500,cs),
(67,500,o),
(63,499,o),
(59,498,cs),
(47,494,o),
(40,486,o),
(40,476,cs),
(40,472,o),
(41,468,o),
(43,464,cs),
(203,26,ls),
(210,6,o),
(227,0,o),
(249,0,cs)
);
}
);
width = 855;
}
);
metricLeft = v;
metricRight = v;
unicode = 119;
},
{
color = 5;
glyphname = x;
lastChange = "2023-12-13 15:49:41 +0000";
layers = (
{
layerId = m004;
shapes = (
{
closed = 1;
nodes = (
(398,-5,o),
(404,-3,o),
(410,2,cs),
(418,8,o),
(423,14,o),
(423,22,cs),
(423,27,o),
(421,32,o),
(417,38,cs),
(273,244,l),
(421,456,ls),
(425,462,o),
(427,467,o),
(427,472,cs),
(427,479,o),
(424,486,o),
(416,491,cs),
(410,495,o),
(404,497,o),
(398,497,cs),
(391,496,o),
(385,492,o),
(380,485,cs),
(242,288,l),
(103,486,ls),
(98,494,o),
(91,498,o),
(83,498,cs),
(78,498,o),
(72,496,o),
(66,492,cs),
(57,486,o),
(52,478,o),
(52,470,cs),
(52,465,o),
(55,460,o),
(58,455,cs),
(203,248,l),
(56,37,ls),
(52,32,o),
(50,26,o),
(50,21,cs),
(51,14,o),
(54,7,o),
(62,2,cs),
(68,-2,o),
(73,-4,o),
(78,-4,cs),
(85,-4,o),
(91,0,o),
(97,8,cs),
(234,204,l),
(372,7,ls),
(377,-1,o),
(384,-5,o),
(392,-5,cs)
);
}
);
width = 477;
}
);
unicode = 120;
},
{
color = 5;
glyphname = y;
lastChange = "2023-12-13 15:49:41 +0000";
layers = (
{
layerId = m004;
shapes = (
{
closed = 1;
nodes = (
(381,-309,o),
(503,-235,o),
(503,-54,cs),
(503,479,ls),
(503,495,o),
(494,505,o),
(476,505,cs),
(458,505,o),
(448,495,o),
(448,479,cs),
(448,-54,ls),
(448,-197,o),
(356,-256,o),
(264,-256,cs),
(208,-256,o),
(153,-239,o),
(115,-192,cs),
(108,-183,o),
(97,-176,o),
(87,-176,cs),
(81,-176,o),
(75,-178,o),
(70,-182,cs),
(64,-187,o),
(61,-193,o),
(61,-200,cs),
(61,-208,o),
(65,-217,o),
(71,-225,cs),
(120,-286,o),
(193,-309,o),
(264,-309,cs)
);
},
{
closed = 1;
nodes = (
(387,-4,o),
(489,70,o),
(489,251,c),
(454,251,l),
(454,108,o),
(362,46,o),
(270,46,cs),
(177,46,o),
(115,108,o),
(115,251,c),
(60,251,l),
(60,70,o),
(152,-4,o),
(270,-4,cs)
);
},
{
closed = 1;
nodes = (
(106,225,o),
(115,234,o),
(115,251,cs),
(115,479,ls),
(115,495,o),
(106,505,o),
(88,505,cs),
(70,505,o),
(60,495,o),
(60,479,cs),
(60,251,ls),
(60,235,o),
(70,225,o),
(88,225,cs)
);
}
);
width = 581;
}
);
metricLeft = u;
metricRight = u;
unicode = 121;
},
{
color = 5;
glyphname = z;
lastChange = "2023-12-13 15:49:41 +0000";
layers = (
{
layerId = m004;
shapes = (
{
closed = 1;
nodes = (
(484,0,l),
(499,0,o),
(510,9,o),
(510,25,c),
(510,109,ls),
(510,125,o),
(501,135,o),
(485,135,cs),
(469,135,o),
(460,125,o),
(460,109,cs),
(460,50,l),
(126,50,l),
(505,454,ls),
(509,458,o),
(511,464,o),
(511,471,cs),
(511,484,o),
(502,500,o),
(484,500,cs),
(76,500,ls),
(51,500,o),
(51,478,o),
(51,467,cs),
(51,391,ls),
(51,375,o),
(60,365,o),
(76,365,cs),
(92,365,o),
(101,375,o),
(101,391,cs),
(101,450,l),
(434,450,l),
(59,45,l),
(53,39,o),
(50,31,o),
(50,23,cs),
(50,11,o),
(57,0,o),
(76,0,cs)
);
}
);
width = 560;
}
);
unicode = 122;
},
{
color = 5;
glyphname = zero;
lastChange = "2023-12-13 14:52:27 +0000";
layers = (
{
guides = (
{
pos = (263,351);
showMeasurement = 1;
},
{
angle = 90;
pos = (304,373);
showMeasurement = 1;
}
);
layerId = m004;
shapes = (
{
closed = 1;
nodes = (
(423,-8,o),
(544,97,o),
(544,351,cs),
(544,605,o),
(423,710,o),
(302,710,cs),
(190,710,o),
(60,605,o),
(60,351,cs),
(60,97,o),
(190,-8,o),
(302,-8,cs)
);
},
{
closed = 1;
nodes = (
(212,42,o),
(115,135,o),
(115,351,cs),
(115,567,o),
(212,660,o),
(302,660,cs),
(401,660,o),
(489,567,o),
(489,351,cs),
(489,135,o),
(401,42,o),
(302,42,cs)
);
}
);
width = 604;
}
);
unicode = 48;
},
{
color = 5;
glyphname = one;
lastChange = "2023-12-13 14:44:25 +0000";
layers = (
{
layerId = m004;
shapes = (
{
closed = 1;
nodes = (
(284,6,o),
(294,16,o),
(294,32,cs),
(294,674,ls),
(294,677,o),
(294,679,o),
(293,681,c),
(291,693,o),
(281,700,o),
(266,700,cs),
(248,700,o),
(239,691,o),
(238,673,cs),
(234,577,o),
(122,543,o),
(87,543,cs),
(62,543,o),
(50,530,o),
(50,517,cs),
(50,502,o),
(63,491,o),
(82,491,cs),
(134,491,o),
(196,512,o),
(239,562,c),
(239,32,ls),
(239,16,o),
(248,6,o),
(266,6,cs)
);
},
{
closed = 1;
nodes = (
(347,0,ls),
(363,0,o),
(373,9,o),
(373,25,cs),
(373,41,o),
(363,50,o),
(347,50,cs),
(176,50,ls),
(160,50,o),
(150,41,o),
(150,25,cs),
(150,9,o),
(160,0,o),
(176,0,cs)
);
}
);
width = 394;
}
);
unicode = 49;
},
{
color = 5;
glyphname = two;
lastChange = "2023-12-13 14:44:32 +0000";
layers = (
{
background = {
shapes = (
{
closed = 1;
nodes = (
(519,472,l),
(516,634,o),
(405,709,o),
(279,709,cs),
(118,709,o),
(40,585,o),
(40,485,cs),
(40,466,o),
(49,452,o),
(67,452,cs),
(82,452,o),
(94,463,o),
(95,479,cs),
(106,604,o),
(187,659,o),
(279,659,cs),
(377,659,o),
(461,596,o),
(464,472,c)
);
},
{
closed = 1;
nodes = (
(130,220,o),
(142,210,o),
(158,210,cs),
(302,210,o),
(519,231,o),
(519,469,cs),
(519,472,l),
(464,472,l),
(464,469,ls),
(464,315,o),
(375,260,o),
(159,260,cs),
(142,260,o),
(130,249,o),
(130,235,cs)
);
},
{
closed = 1;
nodes = (
(95,147,l),
(99,190,o),
(127,210,o),
(159,210,c),
(159,260,l),
(79,260,o),
(40,200,o),
(40,150,c)
);
}
);
};
guides = (
{
angle = 270;
pos = (79,260);
showMeasurement = 1;
},
{
pos = (160,365);
showMeasurement = 1;
}
);
layerId = m004;
shapes = (
{
closed = 1;
nodes = (
(496,0,ls),
(510,0,o),
(520,9,o),
(520,25,cs),
(520,41,o),
(511,50,o),
(496,50,cs),
(115,50,l),
(115,146,ls),
(115,307,o),
(497,237,o),
(497,505,cs),
(497,646,o),
(383,710,o),
(279,710,cs),
(184,710,o),
(93,657,o),
(74,582,cs),
(73,578,o),
(72,573,o),
(72,569,cs),
(72,554,o),
(79,548,o),
(89,546,cs),
(92,545,o),
(95,545,o),
(97,545,cs),
(115,546,o),
(123,557,o),
(131,574,cs),
(149,612,o),
(205,655,o),
(279,655,cs),
(353,655,o),
(444,612,o),
(444,506,cs),
(444,284,o),
(60,356,o),
(60,150,cs),
(60,27,l),
(60,12,o),
(67,0,o),
(84,0,cs)
);
},
{
closed = 1;
nodes = (
(511,0,o),
(520,10,o),
(520,26,cs),
(520,109,ls),
(520,125,o),
(511,135,o),
(495,135,cs),
(479,135,o),
(470,125,o),
(470,109,cs),
(470,26,ls),
(470,10,o),
(479,0,o),
(495,0,cs)
);
}
);
width = 580;
}
);
unicode = 50;
},
{
color = 5;
glyphname = three;
lastChange = "2023-12-13 14:44:36 +0000";
layers = (
{
guides = (
{
angle = 270;
pos = (25,500);
showMeasurement = 1;
}
);
layerId = m004;
shapes = (
{
closed = 1;
nodes = (
(370,0,o),
(462,75,o),
(462,209,cs),
(462,418,o),
(259,442,o),
(185,442,cs),
(169,442,o),
(157,432,o),
(157,417,cs),
(157,403,o),
(169,392,o),
(186,392,cs),
(302,392,o),
(407,330,o),
(407,209,cs),
(407,113,o),
(342,50,o),
(244,50,cs),
(172,50,o),
(98,85,o),
(81,170,cs),
(78,187,o),
(67,197,o),
(52,197,cs),
(36,197,o),
(25,185,o),
(25,169,cs),
(28,73,o),
(138,0,o),
(244,0,cs)
);
},
{
closed = 1;
nodes = (
(76,565,o),
(85,575,o),
(85,591,cs),
(85,674,ls),
(85,690,o),
(76,700,o),
(60,700,cs),
(44,700,o),
(35,690,o),
(35,674,cs),
(35,591,ls),
(35,575,o),
(44,565,o),
(60,565,cs)
);
},
{
closed = 1;
nodes = (
(145,345,o),
(151,348,o),
(156,353,cs),
(454,652,ls),
(462,660,o),
(463,664,o),
(463,675,cs),
(463,691,o),
(453,700,o),
(437,700,cs),
(61,700,ls),
(45,700,o),
(35,691,o),
(35,675,cs),
(35,659,o),
(45,650,o),
(61,650,cs),
(374,650,l),
(117,392,ls),
(111,386,o),
(109,380,o),
(109,374,cs),
(109,367,o),
(112,361,o),
(118,354,cs),
(124,348,o),
(131,345,o),
(138,345,cs)
);
}
);
width = 513;
}
);
unicode = 51;
},
{
color = 5;
glyphname = four;
lastChange = "2023-12-13 14:44:38 +0000";
layers = (
{
layerId = m004;
shapes = (
{
closed = 1;
nodes = (
(419,6,o),
(429,16,o),
(429,32,cs),
(429,674,ls),
(429,691,o),
(418,700,o),
(401,700,cs),
(388,700,o),
(379,695,o),
(373,686,c),
(36,237,ls),
(32,232,o),
(30,227,o),
(30,222,cs),
(30,215,o),
(34,208,o),
(43,202,cs),
(49,197,o),
(55,195,o),
(61,195,cs),
(69,195,o),
(77,199,o),
(82,206,cs),
(373,592,l),
(373,32,ls),
(373,16,o),
(383,6,o),
(401,6,cs)
);
},
{
closed = 1;
nodes = (
(472,0,ls),
(488,0,o),
(498,9,o),
(498,25,cs),
(498,41,o),
(488,50,o),
(472,50,cs),
(321,50,ls),
(305,50,o),
(295,41,o),
(295,25,cs),
(295,9,o),
(305,0,o),
(321,0,cs)
);
},
{
closed = 1;
nodes = (
(502,194,ls),
(518,194,o),
(528,203,o),
(528,219,cs),
(528,235,o),
(518,244,o),
(502,244,cs),
(56,244,ls),
(40,244,o),
(30,235,o),
(30,219,cs),
(30,203,o),
(40,194,o),
(56,194,cs)
);
}
);
width = 578;
}
);
metricRight = I;
unicode = 52;
},
{
color = 5;
glyphname = five;
lastChange = "2023-12-13 14:47:00 +0000";
layers = (
{
guides = (
{
angle = 270;
pos = (254,386);
showMeasurement = 1;
},
{
pos = (696,456);
showMeasurement = 1;
}
);
layerId = m004;
shapes = (
{
closed = 1;
nodes = (
(375,0,o),
(467,75,o),
(467,229,cs),
(467,372,o),
(367,454,o),
(256,454,cs),
(206,454,o),
(171,445,o),
(135,429,c),
(135,674,ls),
(135,690,o),
(126,700,o),
(108,700,cs),
(89,700,o),
(80,691,o),
(80,674,cs),
(80,386,ls),
(80,369,o),
(90,360,o),
(104,360,cs),
(109,360,o),
(113,361,o),
(134,371,cs),
(150,379,o),
(203,404,o),
(254,404,cs),
(351,404,o),
(412,320,o),
(412,229,cs),
(412,113,o),
(347,50,o),
(249,50,cs),
(177,50,o),
(103,85,o),
(86,170,cs),
(83,187,o),
(72,197,o),
(57,197,cs),
(39,197,o),
(28,183,o),
(30,164,cs),
(37,104,o),
(88,0,o),
(249,0,cs)
);
},
{
closed = 1;
nodes = (
(421,650,ls),
(437,650,o),
(447,659,o),
(447,675,cs),
(447,691,o),
(437,700,o),
(421,700,cs),
(66,700,ls),
(50,700,o),
(40,691,o),
(40,675,cs),
(40,659,o),
(50,650,o),
(66,650,cs)
);
},
{
closed = 1;
nodes = (
(438,565,o),
(447,575,o),
(447,591,cs),
(447,674,ls),
(447,690,o),
(438,700,o),
(422,700,cs),
(406,700,o),
(397,690,o),
(397,674,cs),
(397,591,ls),
(397,575,o),
(406,565,o),
(422,565,cs)
);
}
);
width = 517;
}
);
unicode = 53;
},
{
color = 5;
glyphname = six;
lastChange = "2023-12-13 14:47:14 +0000";
layers = (
{
guides = (
{
pos = (274,221);
showMeasurement = 1;
}
);
layerId = m004;
shapes = (
{
closed = 1;
nodes = (
(427,-7,o),
(542,71,o),
(542,222,cs),
(542,377,o),
(423,455,o),
(310,455,cs),
(241,455,o),
(160,429,o),
(107,352,c),
(116,573,o),
(187,655,o),
(298,655,cs),
(383,655,o),
(428,612,o),
(446,574,cs),
(454,557,o),
(462,546,o),
(480,545,cs),
(482,545,o),
(485,545,o),
(488,546,cs),
(498,548,o),
(505,554,o),
(505,569,cs),
(505,573,o),
(504,578,o),
(503,582,cs),
(484,657,o),
(404,710,o),
(298,710,cs),
(153,710,o),
(47,590,o),
(47,318,cs),
(47,154,o),
(87,-7,o),
(307,-7,cs)
);
},
{
closed = 1;
nodes = (
(151,40,o),
(107,161,o),
(107,231,cs),
(107,347,o),
(225,402,o),
(310,402,cs),
(395,402,o),
(487,337,o),
(487,221,cs),
(487,105,o),
(395,40,o),
(310,40,cs)
);
}
);
width = 600;
}
);
unicode = 54;
},
{
color = 5;
glyphname = seven;
lastChange = "2023-12-13 14:48:26 +0000";
layers = (
{
layerId = m004;
shapes = (
{
closed = 1;
nodes = (
(307,5,l),
(307,107,ls),
(307,489,o),
(543,437,o),
(543,675,cs),
(543,691,o),
(533,700,o),
(517,700,cs),
(91,700,ls),
(75,700,o),
(65,691,o),
(65,675,cs),
(65,659,o),
(75,650,o),
(91,650,cs),
(488,650,l),
(468,484,o),
(252,472,o),
(252,107,cs),
(252,5,l)
);
},
{
closed = 1;
nodes = (
(355,0,ls),
(371,0,o),
(381,9,o),
(381,25,cs),
(381,41,o),
(371,50,o),
(355,50,cs),
(204,50,ls),
(188,50,o),
(178,41,o),
(178,25,cs),
(178,9,o),
(188,0,o),
(204,0,cs)
);
},
{
closed = 1;
nodes = (
(463,326,ls),
(479,326,o),
(489,335,o),
(489,351,cs),
(489,367,o),
(479,376,o),
(463,376,cs),
(195,376,ls),
(179,376,o),
(169,367,o),
(169,351,cs),
(169,335,o),
(179,326,o),
(195,326,cs)
);
}
);
width = 593;
}
);
unicode = 55;
},
{
color = 5;
glyphname = eight;
lastChange = "2023-12-13 14:51:53 +0000";
layers = (
{
guides = (
{
angle = 90;
pos = (302,373);
showMeasurement = 1;
},
{
pos = (247,190);
showMeasurement = 1;
},
{
pos = (210,525);
showMeasurement = 1;
}
);
layerId = m004;
shapes = (
{
closed = 1;
nodes = (
(451,-10,o),
(542,71,o),
(542,190,cs),
(542,292,o),
(473,333,o),
(392,361,c),
(462,389,o),
(518,433,o),
(518,525,cs),
(518,635,o),
(421,710,o),
(301,710,cs),
(181,710,o),
(84,635,o),
(84,525,cs),
(84,433,o),
(140,389,o),
(210,361,c),
(129,333,o),
(60,292,o),
(60,190,cs),
(60,58,o),
(169,-10,o),
(301,-10,cs)
);
},
{
closed = 1;
nodes = (
(193,40,o),
(115,108,o),
(115,190,cs),
(115,280,o),
(204,314,o),
(291,341,c),
(398,314,o),
(487,280,o),
(487,190,cs),
(487,102,o),
(394,40,o),
(301,40,cs)
);
},
{
closed = 1;
nodes = (
(214,409,o),
(139,440,o),
(139,526,cs),
(139,610,o),
(221,660,o),
(301,660,cs),
(394,660,o),
(463,610,o),
(463,526,cs),
(463,440,o),
(388,409,o),
(320,381,c)
);
}
);
width = 602;
}
);
unicode = 56;
},
{
color = 5;
glyphname = nine;
lastChange = "2023-12-13 14:52:16 +0000";
layers = (
{
layerId = m004;
shapes = (
{
closed = 1;
nodes = (
(447,-7,o),
(553,113,o),
(553,385,cs),
(553,549,o),
(513,710,o),
(293,710,cs),
(173,710,o),
(58,632,o),
(58,481,cs),
(58,326,o),
(177,248,o),
(290,248,cs),
(359,248,o),
(440,274,o),
(493,351,c),
(484,130,o),
(413,48,o),
(302,48,cs),
(217,48,o),
(172,91,o),
(154,129,cs),
(146,146,o),
(138,157,o),
(120,158,cs),
(118,158,o),
(115,158,o),
(112,157,cs),
(102,155,o),
(95,149,o),
(95,134,cs),
(95,130,o),
(96,125,o),
(97,121,cs),
(116,46,o),
(196,-7,o),
(302,-7,cs)
);
},
{
closed = 1;
nodes = (
(205,301,o),
(113,366,o),
(113,482,cs),
(113,598,o),
(205,663,o),
(290,663,cs),
(449,663,o),
(493,542,o),
(493,472,cs),
(493,356,o),
(375,301,o),
(290,301,cs)
);
}
);
width = 600;
}
);
unicode = 57;
},
{
color = 5;
glyphname = period;
lastChange = "2023-12-13 15:14:28 +0000";
layers = (
{
layerId = m004;
shapes = (
{
closed = 1;
nodes = (
(167,-10,o),
(190,12,o),
(190,40,cs),
(190,67,o),
(167,90,o),
(139,90,cs),
(111,90,o),
(90,67,o),
(90,40,cs),
(90,12,o),
(111,-10,o),
(139,-10,cs)
);
}
);
width = 280;
}
);
unicode = 46;
},
{
color = 5;
glyphname = comma;
lastChange = "2023-12-13 15:14:28 +0000";
layers = (
{
background = {
shapes = (
{
closed = 1;
nodes = (
(94,-81,o),
(91,-87,o),
(91,-93,cs),
(91,-101,o),
(100,-109,o),
(110,-109,cs),
(115,-109,o),
(120,-107,o),
(124,-104,cs),
(183,-48,o),
(190,18,o),
(190,40,cs),
(190,67,o),
(167,90,o),
(139,90,cs),
(111,90,o),
(90,67,o),
(90,40,cs),
(90,13,o),
(109,-6,o),
(131,-9,c),
(129,-29,o),
(121,-51,o),
(99,-76,cs)
);
}
);
};
guides = (
{
angle = 180;
pos = (190,-73);
showMeasurement = 1;
}
);
layerId = m004;
shapes = (
{
closed = 1;
nodes = (
(115,-109,o),
(120,-107,o),
(124,-104,cs),
(183,-48,o),
(190,18,o),
(190,40,cs),
(190,67,o),
(167,90,o),
(139,90,cs),
(111,90,o),
(90,67,o),
(90,40,cs),
(90,13,o),
(110,-3,o),
(132,-4,c),
(130,-24,o),
(121,-51,o),
(99,-76,cs),
(94,-81,o),
(91,-87,o),
(91,-93,cs),
(91,-101,o),
(100,-109,o),
(110,-109,cs)
);
}
);
width = 280;
}
);
unicode = 44;
},
{
color = 5;
glyphname = colon;
lastChange = "2023-12-13 15:14:28 +0000";
layers = (
{
layerId = m004;
shapes = (
{
closed = 1;
nodes = (
(167,400,o),
(190,422,o),
(190,450,cs),
(190,477,o),
(167,500,o),
(139,500,cs),
(111,500,o),
(90,477,o),
(90,450,cs),
(90,422,o),
(111,400,o),
(139,400,cs)
);
},
{
closed = 1;
nodes = (
(167,-10,o),
(190,12,o),
(190,40,cs),
(190,67,o),
(167,90,o),
(139,90,cs),
(111,90,o),
(90,67,o),
(90,40,cs),
(90,12,o),
(111,-10,o),
(139,-10,cs)
);
}
);
width = 280;
}
);
unicode = 58;
},
{
color = 5;
glyphname = semicolon;
lastChange = "2023-12-13 15:16:07 +0000";
layers = (
{
layerId = m004;
shapes = (
{
closed = 1;
nodes = (
(115,-109,o),
(120,-107,o),
(124,-104,cs),
(183,-48,o),
(190,18,o),
(190,40,cs),
(190,67,o),
(167,90,o),
(139,90,cs),
(111,90,o),
(90,67,o),
(90,40,cs),
(90,13,o),
(110,-3,o),
(132,-4,c),
(130,-24,o),
(121,-51,o),
(99,-76,cs),
(94,-81,o),
(91,-87,o),
(91,-93,cs),
(91,-101,o),
(100,-109,o),
(110,-109,cs)
);
},
{
closed = 1;
nodes = (
(167,400,o),
(190,422,o),
(190,450,cs),
(190,477,o),
(167,500,o),
(139,500,cs),
(111,500,o),
(90,477,o),
(90,450,cs),
(90,422,o),
(111,400,o),
(139,400,cs)
);
}
);
width = 280;
}
);
unicode = 59;
},
{
color = 5;
glyphname = exclam;
lastChange = "2023-12-13 15:16:07 +0000";
layers = (
{
layerId = m004;
shapes = (
{
closed = 1;
nodes = (
(158,195,o),
(168,205,o),
(168,221,cs),
(180,663,ls),
(180,681,o),
(166,701,o),
(139,701,cs),
(113,701,o),
(99,681,o),
(100,663,cs),
(113,221,ls),
(113,205,o),
(122,195,o),
(140,195,cs)
);
},
{
closed = 1;
nodes = (
(167,-10,o),
(190,12,o),
(190,40,cs),
(190,67,o),
(167,90,o),
(139,90,cs),
(111,90,o),
(90,67,o),
(90,40,cs),
(90,12,o),
(111,-10,o),
(139,-10,cs)
);
}
);
width = 280;
}
);
unicode = 33;
},
{
color = 5;
glyphname = question;
lastChange = "2023-12-13 21:17:52 +0000";
layers = (
{
layerId = m004;
shapes = (
{
closed = 1;
nodes = (
(223,140,o),
(233,151,o),
(233,169,cs),
(233,246,ls),
(233,357,o),
(465,329,o),
(465,527,cs),
(465,658,o),
(351,710,o),
(247,710,cs),
(152,710,o),
(61,657,o),
(42,582,cs),
(41,578,o),
(40,573,o),
(40,569,cs),
(40,554,o),
(47,548,o),
(57,546,cs),
(60,545,o),
(63,545,o),
(65,545,cs),
(83,546,o),
(91,557,o),
(99,574,cs),
(117,612,o),
(173,655,o),
(247,655,cs),
(321,655,o),
(412,624,o),
(412,518,cs),
(412,376,o),
(178,406,o),
(178,250,cs),
(178,167,ls),
(178,164,o),
(178,161,o),
(179,159,c),
(182,147,o),
(191,140,o),
(205,140,cs)
);
},
{
closed = 1;
nodes = (
(233,-10,o),
(256,12,o),
(256,40,cs),
(256,67,o),
(233,90,o),
(205,90,cs),
(177,90,o),
(156,67,o),
(156,40,cs),
(156,12,o),
(177,-10,o),
(205,-10,cs)
);
}
);
width = 525;
}
);
unicode = 63;
},
{
color = 5;
glyphname = questiondown;
lastChange = "2023-12-13 15:16:07 +0000";
layers = (
{
layerId = m004;
shapes = (
{
closed = 1;
nodes = (
(373,-159,o),
(464,-106,o),
(483,-31,cs),
(484,-27,o),
(485,-22,o),
(485,-18,cs),
(485,-3,o),
(478,3,o),
(468,5,cs),
(465,6,o),
(462,6,o),
(460,6,cs),
(442,5,o),
(434,-6,o),
(426,-23,cs),
(408,-61,o),
(352,-104,o),
(278,-104,cs),
(204,-104,o),
(113,-73,o),
(113,23,cs),
(113,175,o),
(347,145,o),
(347,301,cs),
(347,384,ls),
(347,387,o),
(347,390,o),
(346,392,c),
(343,404,o),
(334,411,o),
(320,411,cs),
(302,411,o),
(292,400,o),
(292,382,cs),
(292,305,ls),
(292,194,o),
(60,222,o),
(60,24,cs),
(60,-107,o),
(174,-159,o),
(278,-159,cs)
);
},
{
closed = 1;
nodes = (
(348,461,o),
(369,484,o),
(369,511,cs),
(369,539,o),
(348,561,o),
(320,561,cs),
(292,561,o),
(269,539,o),
(269,511,cs),
(269,484,o),
(292,461,o),
(320,461,cs)
);
}
);
width = 525;
}
);
unicode = 191;
},
{
color = 5;
glyphname = quotedblleft;
lastChange = "2023-12-13 15:17:09 +0000";
layers = (
{
layerId = m004;
shapes = (
{
closed = 1;
nodes = (
(234,506,o),
(255,529,o),
(255,556,cs),
(255,583,o),
(235,599,o),
(213,600,c),
(215,620,o),
(224,647,o),
(246,672,cs),
(251,677,o),
(254,683,o),
(254,689,cs),
(254,697,o),
(245,705,o),
(235,705,cs),
(230,705,o),
(225,703,o),
(221,700,cs),
(162,644,o),
(155,578,o),
(155,556,cs),
(155,529,o),
(178,506,o),
(206,506,cs)
);
},
{
closed = 1;
nodes = (
(104,506,o),
(125,529,o),
(125,556,cs),
(125,583,o),
(105,599,o),
(83,600,c),
(85,620,o),
(94,647,o),
(116,672,cs),
(121,677,o),
(124,683,o),
(124,689,cs),
(124,697,o),
(115,705,o),
(105,705,cs),
(100,705,o),
(95,703,o),
(91,700,cs),
(32,644,o),
(25,578,o),
(25,556,cs),
(25,529,o),
(48,506,o),
(76,506,cs)
);
}
);
width = 280;
}
);
unicode = 8220;
},
{
color = 5;
glyphname = quotedblright;
lastChange = "2023-12-13 15:17:09 +0000";
layers = (
{
layerId = m004;
shapes = (
{
closed = 1;
nodes = (
(180,506,o),
(185,508,o),
(189,511,cs),
(248,567,o),
(255,633,o),
(255,655,cs),
(255,682,o),
(232,705,o),
(204,705,cs),
(176,705,o),
(155,682,o),
(155,655,cs),
(155,628,o),
(175,612,o),
(197,611,c),
(195,591,o),
(186,564,o),
(164,539,cs),
(159,534,o),
(156,528,o),
(156,522,cs),
(156,514,o),
(165,506,o),
(175,506,cs)
);
},
{
closed = 1;
nodes = (
(50,506,o),
(55,508,o),
(59,511,cs),
(118,567,o),
(125,633,o),
(125,655,cs),
(125,682,o),
(102,705,o),
(74,705,cs),
(46,705,o),
(25,682,o),
(25,655,cs),
(25,628,o),
(45,612,o),
(67,611,c),
(65,591,o),
(56,564,o),
(34,539,cs),
(29,534,o),
(26,528,o),
(26,522,cs),
(26,514,o),
(35,506,o),
(45,506,cs)
);
}
);
width = 280;
}
);
unicode = 8221;
},
{
color = 5;
glyphname = quotedbl;
lastChange = "2023-12-13 15:22:20 +0000";
layers = (
{
layerId = m004;
shapes = (
{
closed = 1;
nodes = (
(234,506,o),
(255,529,o),
(255,556,cs),
(255,583,o),
(235,599,o),
(213,600,c),
(215,620,o),
(224,647,o),
(246,672,cs),
(251,677,o),
(254,683,o),
(254,689,cs),
(254,697,o),
(245,705,o),
(235,705,cs),
(230,705,o),
(225,703,o),
(221,700,cs),
(162,644,o),
(155,578,o),
(155,556,cs),
(155,529,o),
(178,506,o),
(206,506,cs)
);
},
{
closed = 1;
nodes = (
(104,506,o),
(125,529,o),
(125,556,cs),
(125,583,o),
(105,599,o),
(83,600,c),
(85,620,o),
(94,647,o),
(116,672,cs),
(121,677,o),
(124,683,o),
(124,689,cs),
(124,697,o),
(115,705,o),
(105,705,cs),
(100,705,o),
(95,703,o),
(91,700,cs),
(32,644,o),
(25,578,o),
(25,556,cs),
(25,529,o),
(48,506,o),
(76,506,cs)
);
}
);
width = 280;
}
);
unicode = 34;
},
{
color = 1;
glyphname = dieresiscomb;
lastChange = "2023-12-13 16:49:47 +0000";
layers = (
{
anchors = (
{
name = "new anchor";
pos = (150,742);
}
);
layerId = m004;
shapes = (
{
closed = 1;
nodes = (
(247,742,o),
(270,764,o),
(270,792,cs),
(270,819,o),
(247,842,o),
(219,842,cs),
(191,842,o),
(170,819,o),
(170,792,cs),
(170,764,o),
(191,742,o),
(219,742,cs)
);
},
{
closed = 1;
nodes = (
(107,742,o),
(130,764,o),
(130,792,cs),
(130,819,o),
(107,842,o),
(79,842,cs),
(51,842,o),
(30,819,o),
(30,792,cs),
(30,764,o),
(51,742,o),
(79,742,cs)
);
}
);
width = 300;
}
);
unicode = 776;
},
